<?xml version="1.0" encoding="UTF-8" standalone="no"?>
<!-- Created with Inkscape (http://www.inkscape.org/) -->

<svg
   width="21.910919mm"
   height="21.710918mm"
   viewBox="0 0 21.910919 21.710918"
   version="1.1"
   id="svg1"
   inkscape:version="1.4.3 (0d15f75, 2025-12-25)"
   sodipodi:docname="dibujo.svg"
   xml:space="preserve"
   xmlns:inkscape="http://www.inkscape.org/namespaces/inkscape"
   xmlns:sodipodi="http://sodipodi.sourceforge.net/DTD/sodipodi-0.dtd"
   xmlns="http://www.w3.org/2000/svg"
   xmlns:svg="http://www.w3.org/2000/svg"><sodipodi:namedview
     id="namedview1"
     pagecolor="#505050"
     bordercolor="#eeeeee"
     borderopacity="1"
     inkscape:showpageshadow="0"
     inkscape:pageopacity="0"
     inkscape:pagecheckerboard="0"
     inkscape:deskcolor="#505050"
     inkscape:document-units="mm"
     inkscape:zoom="0.50835204"
     inkscape:cx="331.46321"
     inkscape:cy="570.47081"
     inkscape:window-width="1321"
     inkscape:window-height="1000"
     inkscape:window-x="1913"
     inkscape:window-y="0"
     inkscape:window-maximized="0"
     inkscape:current-layer="layer1"
     showguides="false"><inkscape:page
       x="0"
       y="0"
       width="21.910919"
       height="21.710918"
       id="page2"
       margin="0"
       bleed="0" /></sodipodi:namedview><defs
     id="defs1"><inkscape:path-effect
       effect="fillet_chamfer"
       id="path-effect89"
       is_visible="true"
       lpeversion="1"
       nodesatellites_param="F,0,0,1,0,0,0,1 @ F,0,0,1,0,0,0,1 @ F,0,0,1,0,0,0,1 @ F,0,0,1,0,0,0,1 @ F,0,0,1,0,0,0,1 @ F,0,0,1,0,0,0,1 @ F,0,0,1,0,0,0,1 @ F,0,0,1,0,0,0,1 @ F,0,0,1,0,0,0,1 @ F,0,0,1,0,0,0,1 @ F,0,0,1,0,0,0,1 @ F,0,0,1,0,0,0,1 @ F,0,0,1,0,0,0,1 @ F,0,0,1,0,0,0,1 @ F,0,0,1,0,0,0,1 @ F,0,0,1,0,0.67634532,0,1 @ F,0,0,1,0,0,0,1 @ F,0,0,1,0,0,0,1 @ F,0,0,1,0,0,0,1 @ F,0,0,1,0,1.4336732,0,1 @ F,0,0,1,0,0,0,1 @ F,0,0,1,0,1.0859275,0,1 @ F,0,0,1,0,0,0,1 @ F,0,0,1,0,0,0,1 @ F,0,0,1,0,0,0,1 @ F,0,0,1,0,0,0,1 @ F,0,0,1,0,0,0,1 @ F,0,0,1,0,0,0,1 @ F,0,0,1,0,0,0,1"
       radius="0"
       unit="px"
       method="auto"
       mode="F"
       chamfer_steps="1"
       flexible="false"
       use_knot_distance="true"
       apply_no_radius="true"
       apply_with_radius="true"
       only_selected="false"
       hide_knots="false" /><inkscape:path-effect
       effect="skeletal"
       id="path-effect87"
       is_visible="true"
       lpeversion="1"
       pattern="m 48.83926,127.4852 c -0.04515,-0.0473 -0.195366,-0.0737 -0.194688,0.009 -0.03796,0.0654 -0.133655,0.10858 -0.154291,0.16673 -0.02103,-0.0564 -0.141727,0.061 -0.200704,0.007 -0.04995,-0.051 0.09172,-0.14784 0.04411,-0.16331 -0.05983,0.048 -0.146186,0.0458 -0.218824,0.0523 -0.07487,10e-4 -0.149091,-0.1156 -0.04026,-0.12848 0.02384,-0.0704 -0.125937,-0.0424 -0.07286,-0.12969 -0.03922,-0.0591 -0.148967,-0.0879 -0.09515,-0.18629 0.05816,-0.0824 -0.0071,-0.17506 0.0297,-0.25655 0.07031,-0.0648 0.194033,-0.0993 0.172437,-0.22503 -0.0032,-0.0769 0.06103,-0.0203 0.04027,0.0238 0.01715,0.0592 0.09043,0.13516 0.131342,0.0425 0.0797,-0.0587 0.129131,-0.15944 0.175306,-0.22905 0.01478,0.0571 -0.05065,0.0559 -0.01053,0.11797 0.01835,0.085 0.09209,0.1654 0.181958,0.11195 0.08154,-0.0365 0.170804,-5.7e-4 0.241336,0.0433 0.10235,0.0662 -0.04663,0.11863 -0.0542,0.18653 0.03097,0.11853 0.159753,-0.0335 0.217066,0.0495 0.06648,0.0705 -0.0059,0.15047 -0.08333,0.14998 -0.01742,0.0695 0.03608,0.16651 -0.06558,0.19383 -0.04443,0.0455 0.03049,0.10231 -0.04642,0.12172 -0.01651,0.0101 -0.01479,0.0339 0.0033,0.0418 z"
       copytype="single_stretched"
       prop_scale="1.766601"
       scale_y_rel="false"
       spacing="0"
       normal_offset="0"
       tang_offset="0"
       prop_units="false"
       vertical_pattern="false"
       hide_knot="false"
       fuse_tolerance="0" /><inkscape:path-effect
       effect="skeletal"
       id="path-effect86"
       is_visible="true"
       lpeversion="1"
       pattern="m 48.83926,127.4852 c -0.04515,-0.0473 -0.195366,-0.0737 -0.194688,0.009 -0.03796,0.0654 -0.133655,0.10858 -0.154291,0.16673 -0.02103,-0.0564 -0.141727,0.061 -0.200704,0.007 -0.04995,-0.051 0.09172,-0.14784 0.04411,-0.16331 -0.05983,0.048 -0.146186,0.0458 -0.218824,0.0523 -0.07487,10e-4 -0.149091,-0.1156 -0.04026,-0.12848 0.02384,-0.0704 -0.125937,-0.0424 -0.07286,-0.12969 -0.03922,-0.0591 -0.148967,-0.0879 -0.09515,-0.18629 0.05816,-0.0824 -0.0071,-0.17506 0.0297,-0.25655 0.07031,-0.0648 0.194033,-0.0993 0.172437,-0.22503 -0.0032,-0.0769 0.06103,-0.0203 0.04027,0.0238 0.01715,0.0592 0.09043,0.13516 0.131342,0.0425 0.0797,-0.0587 0.129131,-0.15944 0.175306,-0.22905 0.01478,0.0571 -0.05065,0.0559 -0.01053,0.11797 0.01835,0.085 0.09209,0.1654 0.181958,0.11195 0.08154,-0.0365 0.170804,-5.7e-4 0.241336,0.0433 0.10235,0.0662 -0.04663,0.11863 -0.0542,0.18653 0.03097,0.11853 0.159753,-0.0335 0.217066,0.0495 0.06648,0.0705 -0.0059,0.15047 -0.08333,0.14998 -0.01742,0.0695 0.03608,0.16651 -0.06558,0.19383 -0.04443,0.0455 0.03049,0.10231 -0.04642,0.12172 -0.01651,0.0101 -0.01479,0.0339 0.0033,0.0418 z"
       copytype="single_stretched"
       prop_scale="2.3828707"
       scale_y_rel="false"
       spacing="0"
       normal_offset="0"
       tang_offset="0"
       prop_units="false"
       vertical_pattern="false"
       hide_knot="false"
       fuse_tolerance="0" /><inkscape:path-effect
       effect="skeletal"
       id="path-effect85"
       is_visible="true"
       lpeversion="1"
       pattern="m 48.83926,127.4852 c -0.04515,-0.0473 -0.195366,-0.0737 -0.194688,0.009 -0.03796,0.0654 -0.133655,0.10858 -0.154291,0.16673 -0.02103,-0.0564 -0.141727,0.061 -0.200704,0.007 -0.04995,-0.051 0.09172,-0.14784 0.04411,-0.16331 -0.05983,0.048 -0.146186,0.0458 -0.218824,0.0523 -0.07487,10e-4 -0.149091,-0.1156 -0.04026,-0.12848 0.02384,-0.0704 -0.125937,-0.0424 -0.07286,-0.12969 -0.03922,-0.0591 -0.148967,-0.0879 -0.09515,-0.18629 0.05816,-0.0824 -0.0071,-0.17506 0.0297,-0.25655 0.07031,-0.0648 0.194033,-0.0993 0.172437,-0.22503 -0.0032,-0.0769 0.06103,-0.0203 0.04027,0.0238 0.01715,0.0592 0.09043,0.13516 0.131342,0.0425 0.0797,-0.0587 0.129131,-0.15944 0.175306,-0.22905 0.01478,0.0571 -0.05065,0.0559 -0.01053,0.11797 0.01835,0.085 0.09209,0.1654 0.181958,0.11195 0.08154,-0.0365 0.170804,-5.7e-4 0.241336,0.0433 0.10235,0.0662 -0.04663,0.11863 -0.0542,0.18653 0.03097,0.11853 0.159753,-0.0335 0.217066,0.0495 0.06648,0.0705 -0.0059,0.15047 -0.08333,0.14998 -0.01742,0.0695 0.03608,0.16651 -0.06558,0.19383 -0.04443,0.0455 0.03049,0.10231 -0.04642,0.12172 -0.01651,0.0101 -0.01479,0.0339 0.0033,0.0418 z"
       copytype="single_stretched"
       prop_scale="2.2076534"
       scale_y_rel="false"
       spacing="0"
       normal_offset="0"
       tang_offset="0"
       prop_units="false"
       vertical_pattern="false"
       hide_knot="false"
       fuse_tolerance="0" /><inkscape:path-effect
       effect="skeletal"
       id="path-effect84"
       is_visible="true"
       lpeversion="1"
       pattern="m 48.83926,127.4852 c -0.04515,-0.0473 -0.195366,-0.0737 -0.194688,0.009 -0.03796,0.0654 -0.133655,0.10858 -0.154291,0.16673 -0.02103,-0.0564 -0.141727,0.061 -0.200704,0.007 -0.04995,-0.051 0.09172,-0.14784 0.04411,-0.16331 -0.05983,0.048 -0.146186,0.0458 -0.218824,0.0523 -0.07487,10e-4 -0.149091,-0.1156 -0.04026,-0.12848 0.02384,-0.0704 -0.125937,-0.0424 -0.07286,-0.12969 -0.03922,-0.0591 -0.148967,-0.0879 -0.09515,-0.18629 0.05816,-0.0824 -0.0071,-0.17506 0.0297,-0.25655 0.07031,-0.0648 0.194033,-0.0993 0.172437,-0.22503 -0.0032,-0.0769 0.06103,-0.0203 0.04027,0.0238 0.01715,0.0592 0.09043,0.13516 0.131342,0.0425 0.0797,-0.0587 0.129131,-0.15944 0.175306,-0.22905 0.01478,0.0571 -0.05065,0.0559 -0.01053,0.11797 0.01835,0.085 0.09209,0.1654 0.181958,0.11195 0.08154,-0.0365 0.170804,-5.7e-4 0.241336,0.0433 0.10235,0.0662 -0.04663,0.11863 -0.0542,0.18653 0.03097,0.11853 0.159753,-0.0335 0.217066,0.0495 0.06648,0.0705 -0.0059,0.15047 -0.08333,0.14998 -0.01742,0.0695 0.03608,0.16651 -0.06558,0.19383 -0.04443,0.0455 0.03049,0.10231 -0.04642,0.12172 -0.01651,0.0101 -0.01479,0.0339 0.0033,0.0418 z"
       copytype="single_stretched"
       prop_scale="2.0129484"
       scale_y_rel="false"
       spacing="0"
       normal_offset="0"
       tang_offset="0"
       prop_units="false"
       vertical_pattern="false"
       hide_knot="false"
       fuse_tolerance="0" /><inkscape:path-effect
       effect="skeletal"
       id="path-effect83"
       is_visible="true"
       lpeversion="1"
       pattern="m 48.83926,127.4852 c -0.04515,-0.0473 -0.195366,-0.0737 -0.194688,0.009 -0.03796,0.0654 -0.133655,0.10858 -0.154291,0.16673 -0.02103,-0.0564 -0.141727,0.061 -0.200704,0.007 -0.04995,-0.051 0.09172,-0.14784 0.04411,-0.16331 -0.05983,0.048 -0.146186,0.0458 -0.218824,0.0523 -0.07487,10e-4 -0.149091,-0.1156 -0.04026,-0.12848 0.02384,-0.0704 -0.125937,-0.0424 -0.07286,-0.12969 -0.03922,-0.0591 -0.148967,-0.0879 -0.09515,-0.18629 0.05816,-0.0824 -0.0071,-0.17506 0.0297,-0.25655 0.07031,-0.0648 0.194033,-0.0993 0.172437,-0.22503 -0.0032,-0.0769 0.06103,-0.0203 0.04027,0.0238 0.01715,0.0592 0.09043,0.13516 0.131342,0.0425 0.0797,-0.0587 0.129131,-0.15944 0.175306,-0.22905 0.01478,0.0571 -0.05065,0.0559 -0.01053,0.11797 0.01835,0.085 0.09209,0.1654 0.181958,0.11195 0.08154,-0.0365 0.170804,-5.7e-4 0.241336,0.0433 0.10235,0.0662 -0.04663,0.11863 -0.0542,0.18653 0.03097,0.11853 0.159753,-0.0335 0.217066,0.0495 0.06648,0.0705 -0.0059,0.15047 -0.08333,0.14998 -0.01742,0.0695 0.03608,0.16651 -0.06558,0.19383 -0.04443,0.0455 0.03049,0.10231 -0.04642,0.12172 -0.01651,0.0101 -0.01479,0.0339 0.0033,0.0418 z"
       copytype="single_stretched"
       prop_scale="1.2569762"
       scale_y_rel="false"
       spacing="0"
       normal_offset="0"
       tang_offset="0"
       prop_units="false"
       vertical_pattern="false"
       hide_knot="false"
       fuse_tolerance="0" /><filter
       style="color-interpolation-filters:sRGB"
       inkscape:label="Noise Fill"
       id="filter90"
       x="0"
       y="0"
       width="1"
       height="1"><feTurbulence
         type="fractalNoise"
         baseFrequency="6.13497 9.81595"
         numOctaves="5"
         seed="145"
         result="turbulence"
         id="feTurbulence89" /><feComposite
         in="SourceGraphic"
         in2="turbulence"
         operator="in"
         result="composite1"
         id="feComposite89" /><feColorMatrix
         values="1 0 0 0 0 0 1 0 0 0 0 0 1 0 0 0 0 0 3.38298 -0.4 "
         result="color"
         id="feColorMatrix89" /><feFlood
         flood-opacity="0"
         flood-color="rgb(219,175,0)"
         result="flood"
         id="feFlood89" /><feMerge
         result="merge"
         id="feMerge90"><feMergeNode
           in="flood"
           id="feMergeNode89" /><feMergeNode
           in="color"
           id="feMergeNode90" /></feMerge><feComposite
         in2="SourceGraphic"
         operator="in"
         result="composite2"
         id="feComposite90" /></filter></defs><g
     inkscape:label="Capa 1"
     inkscape:groupmode="layer"
     id="layer1"
     transform="translate(-65.451536,-32.614659)"><g
       id="g92"><path
         style="fill:#ffffff;stroke:none;stroke-width:1.17951;stroke-linecap:round;stroke-linejoin:round;filter:url(#filter90)"
         d="m 118.15097,38.081292 c 0.0107,-0.107626 -0.0996,-0.389219 -0.19101,-0.339722 -0.10809,-0.02907 -0.24511,-0.173423 -0.32902,-0.17603 0.0432,-0.0702 -0.19966,-0.215511 -0.19438,-0.351551 0.0103,-0.118292 0.24983,0.07619 0.22279,-0.01721 -0.10905,-0.07798 -0.18689,-0.232288 -0.26165,-0.357204 -0.0707,-0.132082 -0.01,-0.33169 0.10558,-0.146368 0.10053,0.0011 -0.0699,-0.247916 0.0766,-0.204841 0.0293,-0.10401 -0.0406,-0.315295 0.1189,-0.277391 0.14579,0.05494 0.18826,-0.114813 0.31318,-0.09719 0.13749,0.08674 0.29091,0.285828 0.41078,0.174138 0.0826,-0.05058 0.0793,0.09629 0.011,0.08526 -0.05,0.06496 -0.0664,0.239168 0.0748,0.257551 0.13943,0.106945 0.29752,0.135705 0.41793,0.176874 -0.0498,0.05954 -0.10931,-0.0571 -0.1411,0.05023 -0.0776,0.08215 -0.0985,0.25977 0.0446,0.387798 0.11643,0.12317 0.15942,0.302324 0.17616,0.452923 0.0215,0.220019 -0.1754,-0.01335 -0.25801,0.01289 -0.10314,0.124096 0.1858,0.263512 0.1467,0.413538 -0.0167,0.15897 -0.17297,0.07742 -0.24441,-0.06007 -0.0935,0.0097 -0.1518,0.161171 -0.27672,-0.003 -0.0919,-0.05216 -0.0855,0.113774 -0.17864,-0.01117 -0.0266,-0.02336 -0.0515,-0.0064 -0.0435,0.03026 z"
         id="path83"
         inkscape:path-effect="#path-effect83"
         inkscape:original-d="m 117.72659,36.163479 1.0834,2.064997"
         sodipodi:nodetypes="cc"
         transform="matrix(0.74306714,0.42901001,-0.42901001,0.74306714,-1.2422382,-40.371492)" /><path
         style="fill:#ffffff;stroke:none;stroke-width:1.17951;stroke-linecap:round;stroke-linejoin:round;filter:url(#filter90)"
         d="m 117.1036,49.417474 c 0.0952,-0.439873 0.14835,-1.903352 -0.0181,-1.896747 -0.13164,-0.369825 -0.21856,-1.302133 -0.33561,-1.503179 0.11353,-0.204885 -0.12279,-1.380775 -0.0141,-1.955358 0.10266,-0.486638 0.2976,0.893581 0.32874,0.429741 -0.0966,-0.582894 -0.0922,-1.424217 -0.10528,-2.131892 -0.002,-0.729421 0.2327,-1.452519 0.25863,-0.392233 0.14171,0.232261 0.0853,-1.226941 0.26105,-0.709838 0.11897,-0.382101 0.17694,-1.451311 0.375,-0.926999 0.16586,0.566624 0.35238,-0.06917 0.51642,0.289352 0.13044,0.684995 0.19988,1.890366 0.45297,1.679967 0.1548,-0.03118 0.0409,0.594585 -0.0479,0.392331 -0.11916,0.167083 -0.27207,0.881014 -0.0855,1.279599 0.11816,0.776477 0.32095,1.258058 0.46107,1.707918 -0.11494,0.143994 -0.11252,-0.493458 -0.23747,-0.102589 -0.1711,0.178775 -0.33294,0.897187 -0.22535,1.772726 0.0735,0.794403 0.001,1.664057 -0.0872,2.351215 -0.13325,0.997144 -0.23879,-0.454293 -0.37547,-0.528044 -0.2386,0.301726 0.0674,1.556394 -0.0996,2.114765 -0.14192,0.647681 -0.30289,-0.05748 -0.30191,-0.811842 -0.1399,-0.169714 -0.33517,0.351509 -0.39017,-0.638913 -0.0916,-0.432859 -0.20594,0.297049 -0.24501,-0.452247 -0.0203,-0.160848 -0.0682,-0.144091 -0.0841,0.03215 z"
         id="path84"
         inkscape:path-effect="#path-effect84"
         inkscape:original-d="M 117.92865,40.189046 V 51.542735"
         transform="matrix(0.85802003,0,0,0.85802003,-30.348371,6.0602416)" /><path
         style="fill:#ffffff;stroke:none;stroke-width:1.17951;stroke-linecap:round;stroke-linejoin:round;filter:url(#filter90)"
         d="m 122.40175,49.417474 c 0.10442,-0.439873 0.1627,-1.903352 -0.0199,-1.896747 -0.14438,-0.369825 -0.23971,-1.302133 -0.36808,-1.503179 0.12451,-0.204885 -0.13467,-1.380775 -0.0155,-1.955358 0.11259,-0.486638 0.32638,0.893581 0.36053,0.429741 -0.10596,-0.582894 -0.10111,-1.424217 -0.11546,-2.131892 -0.002,-0.729421 0.25521,-1.452519 0.28364,-0.392233 0.15542,0.232261 0.0936,-1.226941 0.28631,-0.709838 0.13048,-0.382101 0.19406,-1.451311 0.41127,-0.926999 0.18191,0.566624 0.38647,-0.06917 0.56637,0.289352 0.14306,0.684995 0.21922,1.890366 0.49679,1.679967 0.16977,-0.03118 0.0448,0.594585 -0.0525,0.392331 -0.1307,0.167083 -0.29839,0.881014 -0.0938,1.279599 0.12959,0.776477 0.35199,1.258058 0.50566,1.707918 -0.12605,0.143994 -0.1234,-0.493458 -0.26043,-0.102589 -0.18765,0.178775 -0.36515,0.897187 -0.24715,1.772726 0.0806,0.794403 0.001,1.664057 -0.0956,2.351215 -0.14615,0.997144 -0.26189,-0.454293 -0.41179,-0.528044 -0.26168,0.301726 0.0739,1.556394 -0.10928,2.114765 -0.15564,0.647681 -0.33219,-0.05748 -0.33111,-0.811842 -0.15343,-0.169714 -0.36759,0.351509 -0.42791,-0.638913 -0.10044,-0.432859 -0.22586,0.297049 -0.26871,-0.452247 -0.0223,-0.160848 -0.0748,-0.144091 -0.0923,0.03215 z"
         id="path85"
         inkscape:path-effect="#path-effect85"
         inkscape:original-d="M 123.3066,40.189046 V 51.542735"
         transform="matrix(0.85802003,0,0,0.85802003,-30.348371,6.0602416)" /><path
         style="fill:#ffffff;stroke:none;stroke-width:1.17951;stroke-linecap:round;stroke-linejoin:round;filter:url(#filter90)"
         d="m 131.28771,47.089089 c 0.0112,-0.768838 -0.22488,-1.945384 -0.79237,-2.807747 -0.20312,-0.302806 -0.39258,-0.462044 -0.4366,-0.422925 -0.29946,-0.227988 -0.64848,-0.525083 -1.11502,-0.730102 -0.44129,-0.193923 -0.77548,-0.194429 -0.91428,-0.126752 -0.0499,-0.03185 -0.16703,-0.04704 -0.31209,-0.01121 -0.54275,-0.0044 -1.38779,0.816338 -1.87863,1.340943 -0.24154,0.250031 -0.18254,-0.01516 0.0202,-0.408092 0.15885,-0.307837 0.44001,-0.68692 0.12796,-0.393022 -0.27508,0.359492 -0.56115,0.798413 -0.79941,1.313349 -0.30968,0.687793 -0.4753,1.421826 -0.52604,2.176985 -0.0524,0.678606 -0.0711,1.387795 -0.11887,1.66934 -0.0127,0.07477 -0.18918,0.331714 -0.21294,-0.93062 -0.0885,-0.239055 -0.11385,0.383476 -0.0958,0.930138 0.0169,0.512184 0.0698,1.081972 -0.11513,0.52535 -0.0402,0.805379 0.44634,3.038276 -0.0629,2.011495 -0.24748,-0.56203 -0.33404,-0.510236 -0.41477,-0.394321 -0.0807,0.115915 -0.14929,0.293395 -0.33286,-0.07556 -0.27125,-0.810001 -0.44605,-1.699635 -0.55446,-2.608947 -0.0968,-0.811865 -0.11455,-1.424985 -0.28929,-1.179913 -0.23504,0.075 0.15225,-1.435864 0.17354,-0.915066 0.15041,-0.268113 0.47262,-1.180083 0.80239,-2.000887 0.12359,-0.311176 0.25285,-0.608699 0.34816,-0.869947 0.90085,-1.665415 2.24593,-2.587728 3.47295,-2.953128 0.22454,0.02891 -0.14472,0.122934 -0.39822,0.221492 -0.34392,0.133715 -0.31735,0.154419 0.14635,0.11208 0.11156,0.01741 0.27326,0.02233 0.49618,0.03241 0.97806,0.118276 2.38703,0.405731 3.77256,1.739705 0.31005,0.307053 0.57973,0.661385 0.79612,1.050262 0.77692,1.388491 1.01971,2.86497 1.03658,4.12959 0.015,1.403716 -0.14687,0.616298 -0.20044,0.325185 -0.10612,-0.576771 -0.27358,-1.365465 -0.39068,-1.447881 -0.079,0.351388 0.0575,1.185644 0.0927,2.113882 0.0361,0.951745 -0.0181,1.914808 -0.20349,2.525965 -0.40574,1.578877 -0.2645,-0.384304 -0.20121,-1.789506 -0.0758,-0.186492 -0.18467,-0.0018 -0.27109,-0.03675 -0.0864,-0.03491 -0.11492,-0.295466 -0.19296,-1.31119 -0.0743,-0.441916 -0.13139,-0.282277 -0.1804,-0.208714 -0.049,0.07356 -0.0703,0.05514 -0.18362,-0.671442 -0.0744,-0.368126 -0.10827,-0.20629 -0.091,0.07518 -3.8e-4,1.25e-4 -7.6e-4,2.49e-4 -0.001,3.73e-4 z"
         id="path86"
         inkscape:path-effect="#path-effect86"
         inkscape:original-d="m 124.04902,51.542735 c -3.40576,-12.251614 10.18584,-14.162679 8.05065,0"
         sodipodi:nodetypes="cc"
         transform="matrix(0.85802003,0,0,0.85802003,-30.348371,6.0602416)" /><path
         style="fill:#ffffff;stroke:none;stroke-width:1.17951;stroke-linecap:round;stroke-linejoin:round;filter:url(#filter90)"
         d="m 129.86342,53.981652 c 1.38596,-0.0093 3.81704,-0.05061 6.46418,-0.106587 0.0497,-4.130655 0.0818,-8.475687 0.0356,-8.453361 -0.0315,-2.880856 3.8e-4,-10.036441 -0.0357,-11.527418 0.008,-0.188607 0.0142,-0.477131 0.02,-0.846893 -2.77655,-0.01581 -10.30727,0.05982 -14.21858,0.01788 -3.75229,-0.04486 6.92734,-0.129902 3.31701,-0.14366 -3.56276,0.03296 -8.32652,0.03881 -12.87166,0.0425 -0.0231,-1.126411 0.10032,4.854232 0.0772,3.727821 0.22239,11.090135 -0.0404,6.0423 -0.0892,3.011124 -0.1089,-1.880138 0.0571,9.717996 -0.10222,5.571695 -0.049,2.620255 -0.0664,11.954158 -0.2552,7.367976 -0.14616,-4.548377 -0.31422,0.560096 -0.41855,-2.357832 -0.0519,-5.561812 0.0575,-15.408787 -0.10815,-13.776281 -0.0864,0.200767 0.0705,-4.879623 0.0821,-3.189701 0.007,-0.11577 0.0146,-0.265219 0.0226,-0.444132 0.0167,-0.373162 0.32965,-0.670095 0.70314,-0.664358 2.4333,0.03737 6.30101,0.05975 8.72878,-1.69e-4 6.37431,-0.04965 10.45048,-0.137062 14.26223,-0.196508 1.16391,0.05048 -4.1481,0.04761 -0.94163,0.103092 0.26708,0.01403 0.69048,0.02798 1.24881,0.04107 0.79156,0.01857 1.41893,0.668794 1.40448,1.460458 -0.0497,2.723133 -0.0907,6.431584 -0.0956,10.535665 -0.009,3.041854 -0.0319,6.216684 -0.0631,9.306925 -0.006,0.59971 -0.49695,1.109033 -1.09604,1.137001 -2.81337,0.131343 -5.40967,0.242462 -7.8715,0.338669 -8.14014,0.314961 3.60539,-0.31001 4.14953,-0.40712 -2.52389,-0.02269 -12.56299,0.595721 -17.07242,0.637715 -6.58508,0.116228 1.82121,-0.31872 6.48359,-0.482089 1.15851,-0.128927 -2.69241,-0.172803 5.01058,-0.423711 3.41832,-0.154157 -2.40746,-0.07551 3.51402,-0.237948 1.25739,-0.04122 1.12558,-0.06339 -0.28311,-0.0413 z"
         id="path87"
         inkscape:path-effect="#path-effect87;#path-effect89"
         inkscape:original-d="m 112.14036,53.780938 0.0118,-21.239276 24.70104,0.0045 -0.18694,21.658091 -23.58338,0.873127"
         transform="matrix(0.85802003,0,0,0.85802003,-30.348371,6.0602416)" /><rect
         style="fill:none;stroke:none;stroke-width:0.2;stroke-linecap:round;stroke-linejoin:round;stroke-dasharray:none;stroke-opacity:1"
         id="rect90"
         width="21.710917"
         height="21.710917"
         x="65.551529"
         y="32.614658" /></g></g></svg>
