<svg xmlns="http://www.w3.org/2000/svg" xml:space="preserve" width="82.813" height="82.057" viewBox="0 0 21.911 21.711"><defs><filter id="a" width="1" height="1" x="0" y="0" style="color-interpolation-filters:sRGB"><feTurbulence baseFrequency="6.13497 9.81595" numOctaves="5" result="turbulence" seed="145" type="fractalNoise"/><feComposite in="SourceGraphic" in2="turbulence" operator="in" result="composite1"/><feColorMatrix result="color" values="1 0 0 0 0 0 1 0 0 0 0 0 1 0 0 0 0 0 3.38298 -0.4"/><feFlood flood-color="#dbaf00" flood-opacity="0" result="flood"/><feMerge result="merge"><feMergeNode in="flood"/><feMergeNode in="color"/></feMerge><feComposite in2="SourceGraphic" operator="in" result="composite2"/></filter></defs><path d="M118.151 38.081c.01-.107-.1-.389-.191-.34-.108-.029-.245-.173-.33-.175.044-.07-.199-.216-.193-.352.01-.118.25.076.222-.017-.109-.078-.187-.233-.261-.357-.071-.133-.01-.332.105-.147.1.001-.07-.248.077-.205.03-.104-.04-.315.119-.277.146.055.188-.115.313-.097.137.087.29.286.41.174.083-.05.08.096.012.085-.05.065-.067.24.075.258.139.107.297.135.417.177-.05.06-.109-.057-.14.05-.078.082-.1.26.044.388.116.123.16.302.176.453.022.22-.175-.014-.258.012-.103.125.186.264.147.414-.017.159-.173.077-.245-.06-.093.01-.151.161-.276-.003-.092-.052-.086.114-.179-.011-.027-.024-.051-.007-.043.03z" style="fill:#fff;stroke:none;stroke-width:1.17951;stroke-linecap:round;stroke-linejoin:round;filter:url(#a)" transform="rotate(30 102.847 -160.945)scale(.85802)"/><path d="M117.104 49.417c.095-.44.148-1.903-.018-1.896-.132-.37-.22-1.302-.336-1.503.113-.205-.123-1.381-.014-1.956.102-.486.297.894.329.43-.097-.583-.093-1.424-.106-2.132-.002-.73.233-1.452.259-.392.142.232.085-1.227.26-.71.12-.382.178-1.451.376-.927.166.567.352-.07.516.29.13.684.2 1.89.453 1.68.155-.032.041.594-.048.392-.119.167-.272.88-.085 1.28.118.776.32 1.257.461 1.707-.115.144-.113-.493-.237-.102-.172.178-.333.897-.226 1.772.074.795.001 1.664-.087 2.351-.133.998-.239-.454-.376-.528-.238.302.068 1.557-.1 2.115-.141.648-.302-.057-.301-.812-.14-.17-.335.352-.39-.639-.092-.432-.206.298-.245-.452-.02-.16-.068-.144-.084.032z" style="fill:#fff;stroke:none;stroke-width:1.17951;stroke-linecap:round;stroke-linejoin:round;filter:url(#a)" transform="translate(-95.8 -26.554)scale(.85802)"/><path d="M122.402 49.417c.104-.44.162-1.903-.02-1.896-.145-.37-.24-1.302-.368-1.503.124-.205-.135-1.381-.016-1.956.113-.486.327.894.36.43-.105-.583-.1-1.424-.115-2.132-.002-.73.256-1.452.284-.392.155.232.094-1.227.286-.71.13-.382.194-1.451.412-.927.181.567.386-.07.566.29.143.684.22 1.89.497 1.68.17-.032.045.594-.053.392-.13.167-.298.88-.094 1.28.13.776.352 1.257.506 1.707-.126.144-.123-.493-.26-.102-.188.178-.365.897-.247 1.772.08.795 0 1.664-.096 2.351-.146.998-.262-.454-.412-.528-.262.302.074 1.557-.11 2.115-.155.648-.331-.057-.33-.812-.154-.17-.368.352-.428-.639-.1-.432-.226.298-.269-.452-.022-.16-.075-.144-.092.032z" style="fill:#fff;stroke:none;stroke-width:1.17951;stroke-linecap:round;stroke-linejoin:round;filter:url(#a)" transform="translate(-95.8 -26.554)scale(.85802)"/><path d="M131.288 47.09c.01-.77-.225-1.946-.793-2.809-.203-.302-.392-.462-.436-.423-.3-.228-.649-.525-1.115-.73-.442-.194-.776-.194-.915-.126-.05-.032-.167-.047-.312-.012-.542-.004-1.387.817-1.878 1.341-.242.25-.183-.015.02-.408.159-.308.44-.687.128-.393-.275.36-.561.799-.8 1.314a6.3 6.3 0 0 0-.526 2.177c-.052.678-.07 1.387-.118 1.669-.013.075-.19.332-.213-.93-.089-.24-.114.383-.096.93.017.512.07 1.081-.115.525-.04.805.446 3.038-.063 2.011-.248-.562-.334-.51-.415-.394s-.15.293-.333-.076c-.271-.81-.446-1.7-.554-2.609-.097-.811-.115-1.425-.29-1.18-.235.075.153-1.435.174-.915.15-.268.473-1.18.802-2 .124-.312.253-.61.349-.87.9-1.666 2.245-2.588 3.472-2.954.225.03-.144.123-.398.222-.344.134-.317.154.147.112.111.017.273.022.496.032.978.119 2.387.406 3.772 1.74.31.307.58.662.796 1.05.777 1.389 1.02 2.865 1.037 4.13.015 1.404-.147.616-.2.325-.107-.577-.274-1.365-.391-1.448-.08.352.057 1.186.093 2.114.036.952-.018 1.915-.204 2.526-.406 1.579-.264-.384-.201-1.79-.076-.186-.185-.001-.271-.036s-.115-.296-.193-1.311c-.074-.442-.132-.283-.18-.209-.05.074-.07.055-.184-.671-.075-.369-.108-.207-.091.075z" style="fill:#fff;stroke:none;stroke-width:1.17951;stroke-linecap:round;stroke-linejoin:round;filter:url(#a)" transform="translate(-95.8 -26.554)scale(.85802)"/><path d="M129.863 53.982c1.386-.01 3.817-.051 6.465-.107.05-4.13.081-8.476.035-8.453-.031-2.881 0-10.037-.036-11.528.008-.188.015-.477.02-.847-2.776-.015-10.307.06-14.218.018-3.752-.045 6.927-.13 3.317-.143-3.563.033-8.327.038-12.872.042l.077 3.728c.223 11.09-.04 6.042-.089 3.011-.109-1.88.057 9.718-.102 5.572-.049 2.62-.066 11.954-.255 7.368-.146-4.549-.314.56-.419-2.358-.052-5.562.058-15.409-.108-13.776-.086.2.07-4.88.082-3.19q.01-.175.023-.444a.697.697 0 0 1 .703-.665c2.433.038 6.301.06 8.729 0 6.374-.05 10.45-.137 14.262-.196 1.164.05-4.148.047-.942.103.267.014.69.028 1.25.04a1.435 1.435 0 0 1 1.404 1.461c-.05 2.724-.091 6.432-.096 10.536-.009 3.042-.032 6.217-.063 9.307a1.164 1.164 0 0 1-1.096 1.137c-2.813.131-5.41.242-7.872.339-8.14.315 3.606-.31 4.15-.407-2.524-.023-12.563.595-17.072.637-6.586.116 1.82-.318 6.483-.482 1.159-.129-2.692-.173 5.01-.424 3.419-.154-2.407-.075 3.515-.238 1.257-.04 1.125-.063-.283-.04z" style="fill:#fff;stroke:none;stroke-width:1.17951;stroke-linecap:round;stroke-linejoin:round;filter:url(#a)" transform="translate(-95.8 -26.554)scale(.85802)"/><path d="M65.552 32.615h21.711v21.711H65.552z" style="fill:none;stroke:none;stroke-width:.2;stroke-linecap:round;stroke-linejoin:round;stroke-dasharray:none;stroke-opacity:1" transform="translate(-65.452 -32.615)"/></svg>