<?xml version="1.0" encoding="UTF-8" standalone="no"?>
<svg
   viewBox="-35.5 26 27.886688 31.997881"
   width="55.773376"
   height="63.995762"
   version="1.1"
   id="svg2"
   sodipodi:docname="nginx.svg"
   xmlns:inkscape="http://www.inkscape.org/namespaces/inkscape"
   xmlns:sodipodi="http://sodipodi.sourceforge.net/DTD/sodipodi-0.dtd"
   xmlns="http://www.w3.org/2000/svg"
   xmlns:svg="http://www.w3.org/2000/svg">
  <defs
     id="defs2" />
  <sodipodi:namedview
     id="namedview2"
     pagecolor="#ffffff"
     bordercolor="#000000"
     borderopacity="0.25"
     inkscape:showpageshadow="2"
     inkscape:pageopacity="0.0"
     inkscape:pagecheckerboard="0"
     inkscape:deskcolor="#d1d1d1" />
  <path
     d="m -21.57124,26.001139 c -0.12575,0.0075 -0.251617,0.05198 -0.370117,0.125977 l -13.172851,7.608398 a 0.68,0.68 0 0 0 -0.384766,0.650391 v 7.636718 7.634766 c 0,0.296 0.117492,0.474071 0.354492,0.62207 l 13.202149,7.607422 c 0.266999,0.148 0.533805,0.148 0.799804,0 a 56.27,56.27 0 0 0 1.806641,-1.036133 l 11.3662103,-6.569336 a 0.71,0.71 0 0 0 0.355469,-0.651367 V 34.384928 a 0.71,0.71 0 0 0 -0.355469,-0.650391 L -21.201122,26.096842 c -0.1185,-0.074 -0.244368,-0.103203 -0.370118,-0.0957 z m -6.075195,7.970703 c 0.325625,0.0075 0.651539,0.07424 0.977539,0.177735 0.621999,0.177999 1.095,0.561156 1.5,1.035156 l 7.874024,9.443359 c 0.03,0.03 0.05919,0.09044 0.117187,0.148438 v -9 c 0,-0.946999 0.650313,-1.687368 1.570313,-1.776368 1.153998,-0.147999 1.923992,0.68004 2.041992,1.54004 v 12.599609 c 0,0.699999 -0.32597,1.214039 -0.917969,1.540039 -0.444,0.237 -0.917922,0.296602 -1.419922,0.266602 a 3.23,3.23 0 0 1 -1.954101,-0.829102 c -0.296,-0.266 -0.502532,-0.592672 -0.769532,-0.888672 l -7.490234,-8.969726 c 0,-0.03 -0.03055,-0.05984 -0.06055,-0.08984 l 0.002,0.01074 v 8.900391 c 0,1.005999 -0.799259,1.894234 -1.864258,1.865234 -0.649999,-0.03 -1.154,-0.296399 -1.5,-0.858398 -0.178,-0.266 -0.237304,-0.561696 -0.237304,-0.887696 V 35.8361 c 0,-0.829999 0.503297,-1.419524 1.154297,-1.686523 0.325499,-0.1335 0.650937,-0.185235 0.976562,-0.177735 z"
     style="fill:#009438"
     id="path3" />
</svg>
