<?xml version="1.0" encoding="UTF-8" standalone="no"?>
<!-- Created with Inkscape (http://www.inkscape.org/) -->

<svg
   version="1.1"
   id="svg1"
   width="229.30379"
   height="60.751717"
   viewBox="0 0 229.30379 60.751717"
   sodipodi:docname="path2.png"
   xmlns:inkscape="http://www.inkscape.org/namespaces/inkscape"
   xmlns:sodipodi="http://sodipodi.sourceforge.net/DTD/sodipodi-0.dtd"
   xmlns="http://www.w3.org/2000/svg"
   xmlns:svg="http://www.w3.org/2000/svg">
  <defs
     id="defs1" />
  <sodipodi:namedview
     id="namedview1"
     pagecolor="#ffffff"
     bordercolor="#000000"
     borderopacity="0.25"
     inkscape:showpageshadow="2"
     inkscape:pageopacity="0.0"
     inkscape:pagecheckerboard="0"
     inkscape:deskcolor="#d1d1d1" />
  <g
     inkscape:groupmode="layer"
     inkscape:label="Image"
     id="g1"
     transform="translate(-0.34811029,-0.12414171)">
    <path
       style="fill:#000000"
       d="m 111.25631,59.887212 c -1.34952,-0.71616 -3.37452,-3.244996 -4.5,-5.619636 -2.04187,-4.308145 -2.05501,-4.315736 -6.04632,-3.49356 -22.420049,4.618341 -40.945994,-6.209132 -31.745467,-18.553612 8.129366,-10.907287 33.245467,-8.297649 33.245467,3.454304 0,3.309336 -0.7581,3.065869 -4.66466,-1.498062 -8.470536,-9.895917 -23.286914,-8.586011 -25.006344,2.210794 -1.885057,11.836827 29.638414,19.688737 32.224164,8.02644 5.3055,-23.92895 33.18792,-50.6126009 44.88074,-42.9511649 10.83748,7.100986 -6.20872,29.7932899 -31.75979,42.2793919 -5.52688,2.700834 -5.79508,3.000978 -5.22569,5.847942 2.70761,13.538063 22.58368,6.739283 28.55294,-9.76678 5.65768,-15.644479 16.31799,-25.976741 20.27843,-19.654392 1.46081,2.332007 -1.3267,7.432664 -8.44322,15.449637 -6.57096,7.40239 -9.28724,12.484144 -8.31327,15.552872 0.85002,2.678174 1.95004,2.415585 4.65065,-1.11017 7.67311,-10.017579 11.25801,-12.963234 15.77639,-12.963234 2.24355,0 2.79714,1.571877 0.79966,2.270568 -0.89879,0.314387 -0.71407,1.040979 0.65747,2.586073 1.67085,1.88228 1.76389,2.62807 0.75,6.012119 -1.51771,5.065659 -1.46289,5.629613 0.39713,4.085929 2.28201,-1.893898 3.675,-4.831951 4.95678,-10.454689 1.19732,-5.252254 3.72288,-6.870495 4.30691,-2.759633 0.30525,2.148555 0.43917,2.177857 3.26797,0.71503 4.78463,-2.474231 4.99383,4.743466 0.25156,8.679204 -3.29886,2.737808 -3.74371,5.127478 -0.65547,3.521077 3.82423,-1.989238 6.81897,-5.410494 8.67078,-9.905678 1.69643,-4.118019 3.99286,-4.840549 5.63465,-1.772836 0.78566,1.468017 0.66597,2.915789 -0.46481,5.622124 -2.27744,5.450666 -1.80565,6.275927 1.50635,2.634936 2.076,-2.282214 2.97068,-4.293617 2.97068,-6.678572 0,-6.754785 5.63026,-8.409976 6.19475,-1.821141 0.58303,6.805167 6.5568,7.024111 7.93392,0.290785 1.2726,-6.222338 5.87133,-6.24215 5.87133,-0.0253 0,4.705009 1.69133,5.507435 7.0712,3.354837 5.46494,-2.186636 5.82226,-1.230529 0.97492,2.60864 -2.22536,1.76252 -4.04612,3.781082 -4.04612,4.485694 0,2.745755 -4.17488,6.668171 -6.76516,6.356056 -4.08909,-0.492713 -5.07091,-3.183103 -2.45356,-6.723258 2.69474,-3.644826 2.73476,-4.081969 0.37371,-4.081969 -2.10294,0 -4.23259,2.243465 -5.9469,6.264729 -1.31223,3.078116 -5.23367,5.323168 -7.667,4.389412 -2.66487,-1.022609 -2.92922,-3.637892 -0.67577,-6.685834 3.64937,-4.936041 2.35598,-4.511302 -2.87447,0.943952 -5.47796,5.713408 -8.95398,6.515274 -9.94985,2.295282 l -0.541,-2.292458 -3.44428,2.542458 c -4.19685,3.097987 -6.36531,3.199898 -8.9544,0.42083 l -1.9766,-2.12163 -2.69722,2.12163 c -3.25695,2.561915 -5.99361,2.719352 -7.28103,0.418867 -0.80059,-1.430572 -1.20641,-1.492379 -2.53873,-0.386652 -1.03845,0.861836 -2.79283,1.089671 -5.08276,0.660078 -2.00306,-0.375777 -4.39712,-0.174275 -5.6041,0.471684 -2.91115,1.557996 -6.29715,0.491615 -7.89013,-2.484903 l -1.3361,-2.496523 -3.54652,3.113883 c -6.93996,6.093371 -18.89907,9.375392 -24.10181,6.614425 z m 90.31531,-7.28923 c 0.31658,-0.825 0.13973,-1.5 -0.39301,-1.5 -0.53274,0 -0.96862,0.675 -0.96862,1.5 0,0.825 0.17686,1.5 0.39302,1.5 0.21615,0 0.65203,-0.675 0.96861,-1.5 z m 14.03207,-0.08356 c 0.37372,-0.973914 0.15023,-1.431083 -0.58052,-1.1875 -1.49483,0.49828 -2.31789,2.77106 -1.0035,2.77106 0.53699,0 1.2498,-0.712602 1.58402,-1.58356 z m -53.82776,-6.543947 c 1.67758,-3.244083 1.76125,-3.872493 0.51562,-3.872493 -1.11488,0 -5.08156,6.237376 -5.08156,7.990479 0,1.850299 2.77283,-0.650495 4.56594,-4.117986 z m -43.2761,-5.013247 c 17.35329,-8.823682 32.25493,-24.685795 31.52373,-33.5555689 -1.1,-13.343405 -26.43803,7.4474249 -34.73756,28.5035019 -3.19139,8.096625 -3.08933,8.257058 3.21383,5.052067 z m 36.87629,-12.199043 c 3.89897,-4.921969 5.1354,-9.096875 2.38109,-8.039948 -1.66552,0.639122 -6.88987,8.47932 -8.51509,12.778626 -1.43981,3.808836 0.62917,2.210495 6.134,-4.738678 z M 10.375601,55.501426 c -5.8394418,-4.090105 0.689876,-9.46437 9.293289,-7.649284 7.096275,1.49712 8.065772,0.595976 16.037804,-14.907087 3.774855,-7.34089 8.099598,-15.448819 9.610541,-18.017619 L 48.064404,10.256889 43.941193,8.6071071 C 27.589853,2.0645981 4.2099928,11.985238 4.2099928,25.466016 c 0,7.219217 9.8993872,10.645349 16.2728702,5.631966 4.905673,-3.858802 6.913289,-0.402418 2.289395,3.941505 C 17.439073,40.049754 6.1499682,38.328444 2.2356274,31.908158 -7.0241925,16.720238 19.580961,-0.46063288 42.967048,5.6049361 l 6.886639,1.786163 4.723325,-2.768053 c 5.853703,-3.430498 7.05687,-2.589359 2.710521,1.894935 l -3.285754,3.3900383 4.081981,5.4065456 c 17.270491,22.874599 0.794583,49.04517 -25.282875,40.159687 -4.397288,-1.498306 -5.153736,-1.498306 -9.792974,0 -6.335579,2.046164 -9.739344,2.053486 -12.63231,0.02717 z M 21.209993,53.08267 c 1.934893,-1.270177 0.174197,-2.541825 -4.815396,-3.477878 -3.787638,-0.710565 -5.782341,0.493131 -4.848772,2.925973 0.686429,1.788804 7.212255,2.161483 9.664168,0.551905 z m 25.316196,-0.433499 c 11.03481,-3.935507 15.764998,-18.293758 10.394237,-31.551189 -3.201108,-7.90176 -4.184208,-7.232174 -12.479878,8.5 -4.060256,7.7 -8.698145,15.661113 -10.30642,17.691362 -1.608274,2.030249 -2.924135,4.136451 -2.924135,4.680449 0,2.167541 9.910878,2.607156 15.316196,0.679378 z M 190.54187,34.520441 c -0.80244,-2.091103 1.86636,-4.667356 3.99058,-3.852214 1.96757,0.755028 2.16892,2.538383 0.47754,4.229755 -1.67221,1.672216 -3.74889,1.496743 -4.46812,-0.377541 z M 78.209993,10.681316 c 0,-4.2373759 0.191073,-4.5833339 2.531384,-4.5833339 3.386442,0 4.184643,2.563994 1.794722,5.7650329 -3.176004,4.253913 -4.326106,3.939756 -4.326106,-1.181699 z"
       id="path1" />
  </g>
</svg>
