<?xml version="1.0" encoding="UTF-8" standalone="no"?>
<!-- Created with Inkscape (http://www.inkscape.org/) -->

<svg
   version="1.1"
   id="svg1"
   width="231.51971"
   height="236.19041"
   viewBox="0 0 231.51971 236.19041"
   sodipodi:docname="farmaenvios.jpg"
   xmlns:inkscape="http://www.inkscape.org/namespaces/inkscape"
   xmlns:sodipodi="http://sodipodi.sourceforge.net/DTD/sodipodi-0.dtd"
   xmlns="http://www.w3.org/2000/svg"
   xmlns:svg="http://www.w3.org/2000/svg">
  <defs
     id="defs1" />
  <sodipodi:namedview
     id="namedview1"
     pagecolor="#ffffff"
     bordercolor="#000000"
     borderopacity="0.25"
     inkscape:showpageshadow="2"
     inkscape:pageopacity="0.0"
     inkscape:pagecheckerboard="0"
     inkscape:deskcolor="#d1d1d1" />
  <g
     inkscape:groupmode="layer"
     inkscape:label="Image"
     id="g1"
     transform="translate(-73.269677,-70.934334)">
    <path
       style="fill:#000000"
       d="m 92.008394,304.09241 c -18.33966,-8.76933 -23.42482,-29.53035 -14.3389,-58.54097 14.93597,-47.68941 70.567616,-78.41403 149.118126,-82.35597 l 17.21519,-0.86392 v -5.9799 c 0,-7.29546 -2.20742,-8.31892 23.98997,11.12277 26.0693,19.34664 26.1835,14.30557 -0.77325,34.13131 l -22.54161,16.57857 -0.41153,-6.11443 -0.41154,-6.11444 h -21.29489 c -76.31498,0 -116.31109,19.32718 -127.072756,61.40491 -10.15381,39.701 26.860096,30.48094 73.464136,-18.29971 14.36692,-15.03792 14.59027,-15.20515 8.88076,-6.6495 -35.72595,53.53507 -62.54701,72.8113 -85.823706,61.68128 z M 117.07401,281.2297 c -0.005,-0.92827 2.23886,-12.52396 4.98621,-25.76821 l 4.99518,-24.08044 9.22957,-4.64794 c 8.63113,-4.34656 33.26226,-11.97025 34.54144,-10.69107 3.59948,3.59948 -5.0474,26.29692 -13.76461,36.13115 -14.11438,15.92298 -39.95778,34.70169 -39.98779,29.05651 z M 138.3715,175.48587 c -0.36148,-0.36148 0.10908,-4.13471 1.04569,-8.38497 0.9366,-4.25026 5.54058,-27.62648 10.23105,-51.94716 l 8.52814,-44.219405 h 73.29297 c 57.71982,0 73.2987,0.358613 73.31997,1.687764 0.0148,0.92827 -1.93705,9.738397 -4.33757,19.578059 l -4.36457,17.890292 -52.03375,0.005 -52.03374,0.005 -3.79707,19.9108 c -6.64459,34.84237 -5.7834,32.33559 -11.47332,33.39683 -6.5448,1.22068 -29.6642,8.60776 -34.17868,10.92072 -1.94804,0.99806 -3.83765,1.51891 -4.19912,1.15744 z"
       id="path1" />
  </g>
</svg>
