<?xml version="1.0" encoding="UTF-8" standalone="no"?>
<!-- Created with Inkscape (http://www.inkscape.org/) -->

<svg
   version="1.1"
   id="svg1"
   width="413.34857"
   height="414.59418"
   viewBox="0 0 413.34857 414.59418"
   sodipodi:docname="jphonix.png"
   xmlns:inkscape="http://www.inkscape.org/namespaces/inkscape"
   xmlns:sodipodi="http://sodipodi.sourceforge.net/DTD/sodipodi-0.dtd"
   xmlns="http://www.w3.org/2000/svg"
   xmlns:svg="http://www.w3.org/2000/svg">
  <defs
     id="defs1" />
  <sodipodi:namedview
     id="namedview1"
     pagecolor="#ffffff"
     bordercolor="#000000"
     borderopacity="0.25"
     inkscape:showpageshadow="2"
     inkscape:pageopacity="0.0"
     inkscape:pagecheckerboard="0"
     inkscape:deskcolor="#d1d1d1" />
  <g
     inkscape:groupmode="layer"
     inkscape:label="Image"
     id="g1"
     transform="translate(-43.325714,-42.7029)">
    <path
       style="fill:#000000"
       d="M 223.43205,455.47055 C 108.40167,439.78991 27.228705,331.41012 46.037155,218.61805 c 3.00329,-18.01043 3.27874,-18.13655 6.59147,-3.01794 15.64911,71.41936 81.178145,124.76894 132.557455,107.91986 84.02837,-27.55585 48.9309,-140.18196 -48.92421,-156.99541 -12.66377,-2.17589 -12.56186,-3.21561 0.83911,-8.5604 18.94298,-7.55514 39.87643,-11.35495 62.5851,-11.36036 24.8816,-0.006 27.74631,0.83871 68.51316,20.20036 11.55725,5.48896 23.03225,10.55351 25.5,11.25456 10.36975,2.94588 7.78008,5.29007 -12.13125,10.98131 -5.39586,1.54229 -10.29689,3.10468 -10.89119,3.47198 -0.65246,0.40324 1.44926,3.50569 5.30506,7.83104 27.83573,31.2255 40.70422,62.12424 40.70422,97.73558 0,13.17175 0.0317,13.18761 10.18448,5.1007 20.37516,-16.22922 36.774,-39.5508 45.47561,-64.67305 4.62625,-13.35638 8.68452,-42.87885 6.38821,-46.47198 -1.08351,-1.69541 -0.68877,-2.47243 -4.42209,8.70461 -7.05833,21.13171 -27.70114,41.82868 -47.15043,47.27415 -6.10589,1.70954 -6.35352,1.0226 -1.99724,-5.54042 C 379.20504,161.0573 320.80837,56.64009 217.28606,49.578459 207.62546,48.919474 207.24381,48.644574 213.92992,47.161052 395.71859,6.8255663 493.63513,250.7687 336.56766,352.69304 c -13.21138,8.57315 -11.98258,9.01349 7.11842,2.55087 43.15089,-14.59964 84.46661,-52.34224 94.40182,-86.23763 2.10157,-7.16983 1.44218,1.64376 -0.91639,12.2487 -8.79911,39.56377 -27.49961,75.06094 -56.85161,107.91535 -4.7486,5.31522 -8.63382,10.17391 -8.63382,10.79708 0,1.76588 17.2124,-7.55406 30.75,-16.6501 6.7375,-4.52699 12.25,-7.96151 12.25,-7.63228 0,1.43869 -11.70929,14.71116 -20.2175,22.91652 -45.87906,44.24603 -109.19657,65.29886 -171.03653,56.869 z m -1.06042,-292.63859 c 4.73845,-4.45155 0.871,-7.29529 -11.48302,-8.44348 -9.92687,-0.9226 -10.66023,2.28049 -1.83262,8.00442 5.03192,3.26276 10.13098,3.43089 13.31564,0.43906 z m 222.69461,151.67432 c 4.86631,-22.33713 6.26686,-40.45845 4.71231,-60.97106 -1.42943,-18.86148 -1.04833,-18.63162 -12.25577,-7.39225 -14.66725,14.70905 -17.32972,15.3141 -13.45815,3.05842 11.52703,-36.48951 7.45663,-86.08519 -9.84944,-120.01047 -6.83874,-13.40605 -2.20794,-8.98127 9.74909,9.31536 32.03159,49.01468 41.11307,110.71162 24.69386,167.76279 -2.72331,9.46258 -4.99262,14.66672 -3.5919,8.23721 z M 121.77372,281.9379 C 83.396685,261.01977 61.109715,227.12693 57.238025,183.79548 c -1.83025,-20.48401 23.53114,-59.57492 59.441015,-91.619718 14.22929,-12.697754 27.77061,-20.862241 15.7671,-9.506484 -55.729075,52.721742 -60.079815,140.450732 -9.61008,193.778982 10.01624,10.58355 9.85088,11.43809 -1.06234,5.48964 z"
       id="path1" />
  </g>
</svg>
