<svg xmlns="http://www.w3.org/2000/svg" xmlns:xlink="http://www.w3.org/1999/xlink" xml:space="preserve" width="100" height="100" viewBox="0 0 26.458 26.458"><defs><linearGradient id="a"><stop offset=".088" style="stop-color:#000;stop-opacity:0"/><stop offset=".455" style="stop-color:#000;stop-opacity:.72580647"/><stop offset=".561" style="stop-color:#000;stop-opacity:.65437788"/><stop offset=".756" style="stop-color:#000;stop-opacity:0"/></linearGradient><linearGradient xlink:href="#a" id="b" x1="49.483" x2="128.676" y1="141.612" y2="141.612" gradientUnits="userSpaceOnUse"/></defs><path d="M67.187 146.132c-.21-.012.257-.132 1.09-.279 1.784-.314 1.754-.405-.299-.14-1.7.219-2.051.207-1.146-.055.84-.243.81-.264-.284-.152l-.956.1.14-.198c.252-.353.245-.387-.102-.44l-.342-.053 1.04-.162c.573-.088 1.076-.2 1.12-.247.097-.108 1.084-.28 4.486-.727l1.087-.14c4.334-.54 4.02-.385 3.667-.32-.298.055-.396.097-.228.093.167-.004.634-.069 1.025-.141.422-.079 1.91-.24 3.43-.31.547-.027.988-.047 1.5-.068.922-.04 1.692-.077 1.96-.115a7.3 7.3 0 0 1 1.283-.063c.29.022.918.045 1.352.05q.404.004.808.012l-.52-.112c-.33-.07-.06-.07.838.018.714.07 2.073.174 2.875.22l1.52.087-.118.099c-.081.069.004.073.287.015.225-.047.535-.041.702.013l.299.096-.505.032c-.326.02-.16.045.475.072 1.748.072 2.15.068 2.245-.007.122-.1-.412-.146-.776-.068-.452.096-1.497-.04-1.331-.174.097-.078.449-.09 1.017-.035.48.046.994.068 1.147.049.062-.008.219-.008.433-.003.31.008.743.028 1.178.057.75.05 2.81.122 4.653.161 1.739.037 3.774.08 4.14.089.451.012.94-.004 1.085-.035.15-.032.542.005.912.085l.648.142-.623-.045c-.34-.024-1.471-.037-2.505-.03q-.941.008-1.882.014l1.202.064c.815.044 1.102.086.89.134-.354.079 3.06.29 4.397.274a53 53 0 0 1 2.099.045l1.36.054-.325.108-.325.107 2.363.197-2.283.097.291.149c.16.081.747.189 1.302.239l1.01.09-1.982-.032c-2.968-.05-6.577-.055-6.465.003.054.028.654.05 1.333.048.678 0 1.285.024 1.348.056.062.032.73.046 1.483.031l1.368-.028.23.117.23.116q-.5.007-1 .013c-2.305.03-2.845.024-4.82-.045-1.153-.04-2.407-.08-2.742-.085l-.628-.01.339.108c.353.112.28.115-1.258.022-.491-.03-2.735-.128-4.847-.217-.739-.03-1.484-.064-2.193-.097-1.331-.06-2.564-.128-2.992-.155-1.516-.095-2.477-.148-2.728-.147-.094 0-.478-.037-.852-.082a7 7 0 0 0-1.29-.02c-.329.034-1.025.076-1.512.093q-.45.014-.898.033.48.012.96.026c.522.015 1.295.005 1.689-.024.4-.029.822-.043.938-.032.305.03-.22.277-.578.274-1.013-.008-4.662-.237-5.164-.318a11 11 0 0 0-1.493-.117c-.487-.007-.785.032-.54.101l.303.087a56 56 0 0 0-.804.058c-.74.057-5.792.388-9.235.766-1.478.164-2.629.29-2.99.315-.511.037-1.089.1-1.286.143a3.4 3.4 0 0 1-.73.056zm-3.532-1.926q-.295-.012.183-.168l.476-.155-.385.025c-.212.013.041-.083.563-.214.523-.131 1.109-.248 1.303-.26.195-.012.308-.058.253-.102-.064-.05-.41-.029-.937.057-.46.074-.818.116-.796.092.053-.06 2.95-.604 5.327-.99l1.974-.318.1.059.146.085c.136.08.463.11.728.07l.48-.075-.497.019c-.273.01-.519-.04-.545-.112-.023-.06-.108-.096-.327-.099-.402-.006-1.275.096-3.05.344-1.262.176-2.66.331-3.095.341l-.795.019 1.22-.23c.67-.126.964-.194.643-.15-.778.105-1.468.054-1.11-.084.17-.066.115-.075-.133-.021-.231.05-.382.121-.334.159.048.037-.134.104-.403.148q-.492.08-.195-.068l.296-.15-1.245.188.55-.13c.303-.07.599-.183.658-.249s.376-.151.704-.189c.717-.083 2.142-.48 1.873-.522-.106-.017-.704.064-1.328.18l-1.136.212-.264-.093-.264-.093.44-.006c.242-.003.874-.08 1.404-.17s1.15-.174 1.378-.188c.53-.032.163.247-.514.394l-.517.112.464-.031c.727-.049 2.586-.401 2.097-.392-.244.005-.552.02-.684.033-.497.052-.068-.144.49-.22a83 83 0 0 0 1.94-.291q-.377.091-.752.186c-.414.102-.642.181-.507.175.236-.011 1.195-.172 2.012-.323.714-.131 1.327-.254 1.273-.273-.063-.022-.437.02-.832.095-.152.029-.31.057-.454.08a7 7 0 0 1-.504.07c-.193.011.07-.06.492-.15a22 22 0 0 1 1.515-.268l.801-.104-.351.129c-.202.074.603-.047 1.754-.238a64 64 0 0 1 7.071-.769c.784-.039 1.616-.071 2.51-.097 2.237-.062 3.388-.13 2.24-.225-.527-.044-3.345.033-4.756.126-.412.027-.621.05-.514.057.175.01.052.044-.256.08-.807.092-2.366.047-2.048-.048.158-.047.14-.088-.045-.09-.184-.002-.38.042-.437.096s-.304.073-.549.044c-.254-.03-1.161.015-2.051.116-.797.09-2.05.229-2.412.26l-.813.074a147 147 0 0 1 1.079-.196c.585-.104 1.284-.247 1.508-.311.24-.07.905-.197 1.511-.284.592-.085.917-.15.688-.151-.637 0-3.293.431-3.201.506.046.038-.327.083-.827.105-.498.022-.811.007-.692-.037.118-.043-.204-.026-.719.042-.343.045-.734.102-1.149.167-1.516.237-3.27.562-3.513.655a2 2 0 0 1-.673.094c-.22-.01.281-.144 1.2-.318 1.414-.267 2.371-.478 2.954-.66.429-.134.654-.25.706-.36l.106-.223.339.248.993-.27q-.3.008-.6.019c-.981.034-1.411.049-1.623.027-.12-.013-.155-.038-.163-.076-.006-.034.048-.071.138-.104.074-.026.173-.049.284-.063.206-.026 1.023-.141 1.65-.23 1.905-.267 3.897-.41 3.337-.275-.786.188-.592.257.147.145.408-.062.71-.14.667-.175-.043-.036.093-.12.302-.187.267-.085.416-.091.496-.022.063.053-.075.1-.306.103-.263.005-.234.056.06.133.267.07.303.128.089.13-.22.002-.79.09-1.284.203q-.444.1-.885.206.517-.066 1.039-.126c.572-.066 1.623-.193 2.337-.277.883-.103 1.917-.19 3.092-.236q.84-.031 1.804-.044c1.185-.014 1.554-.095.845-.233-.615-.12-.68-.117-.846.022-.082.068-.392.105-.69.084-.32-.024-.369-.047-.1-.058.243-.01.505-.07.58-.134.076-.064.554-.114 1.062-.108.352.004 1.57.012 2.013.013q.545.001 1.089.006l-.41-.209c-.49-.248-.802-.29-.761-.105.016.073-.175.147-.423.165-.545.04-3.47-.143-3.38-.218.07-.06 2.605-.133 5.166-.111 2.542.022 5.168.112 5.469.172.193.038.74.13 1.212.203l.859.131q-.512-.135-1.025-.274l-1.027-.275 1.047.12c.576.066 1.112.168 1.193.227.092.067.157.059.17-.022.013-.07-.278-.185-.647-.254l-.67-.126.668.056a18 18 0 0 0 1.264.052c.417-.003.494.019.252.071l-.348.076.934.025c.539.014 2.474.033 4.412.039 1.913.006 3.57.036 3.682.07.29.091 1.033-.058 1.128-.226.05-.089.5-.158 1.184-.183l1.104-.041.11.115c.06.064-.039.117-.22.118-.182 0-.298.037-.257.08s-.152.082-.428.086c-.674.01-.83-.191-.19-.235q.5-.035.144-.067c-.542-.048-.887.062-.85.273l.031.187 1.016-.045c1.305-.058 1.782-.019 1.104.096l-.527.09.561.058c.31.032.708.062.889.066.178.004.615.02.965.037.354.015 1.009.033 1.466.04 1.33.017 2.89.11 2.818.17-.036.03-.493.065-1.015.077l-.95.022 1.415.08c.776.045 1.144.081.809.081h-.605l.245.161.245.161-.567-.152-.566-.152.034.154.034.153-.326-.1c-.21-.064-.29-.062-.225.006.129.136 4.003.402 4.597.318.232-.033.569-.03.749.008.18.037.558.027.84-.022l.51-.09-2.705-.146 1.31.025 1.311.024.208.147c.144.101.499.15 1.15.159 1.299.016 1.609-.013 1.267-.116-.21-.063-.133-.092.268-.1.31-.008.45.013.312.045s-.005.098.298.147c.302.048.548.061.546.03-.002-.033.135-.048.303-.036.169.013.24.049.157.08-.082.03.273.087.788.126.63.047.902.034.83-.04-.066-.07.003-.08.182-.025.446.133-.066.2-1.319.17-.626-.016-1.176.002-1.221.04-.127.108.78.261 1.097.187.155-.037.426-.023.603.03q.32.096-1.151.084l-1.93-.016c-.252-.002-.334-.01-.185-.02.15-.009.235-.056.189-.105-.047-.048.057-.077.23-.063s.302-.035.285-.107l-.03-.131-.784.017a15 15 0 0 1-1.63-.081 16 16 0 0 0-1.432-.1c-.807 0-.966.169-.078.176l.711.006-.456.065c-.252.036-1.192.016-2.09-.044-1.944-.131-2.964-.117-4.502.066l-1.14.135.507.042c.279.023.54.015.58-.019.076-.063 1.388.007 3.868.2 1.035.079 1.586.078 1.922-.004.269-.065.424-.071.36-.013-.154.141.976.218 1.349.093.292-.099 1.202-.067 5.876.168l1.89.094-1.02.09c-.726.064-.955.122-.794.202.257.129.007.157-1.314.142-.663-.007-.839-.033-.606-.088.235-.055.015-.085-.767-.104l-1.096-.028 1.06-.047c.583-.027.928-.064.767-.084-.16-.02.022-.046.405-.06l.696-.023-.508-.045a5.7 5.7 0 0 0-1.076.038c-.316.045-1.52.032-2.709-.031-2.446-.13-4.758-.166-4.668-.066.034.037-.656.018-1.534-.043-.87-.06-2.675-.1-3.982-.086l-2.386.022 1.59.08c.874.044 1.706.054 1.849.023.29-.062 1.218.039 1.689.184.173.054.352.057.41.01.057-.048.305-.07.553-.05.274.022.324.078.127.144-.177.06-.169.12.017.135s.383-.009.436-.054c.054-.044.313-.064.575-.043.263.022.35.068.195.104-.156.036-.087.065.154.065.24 0 1.084.03 1.87.065l1.43.066-1.2.021-1.199.022 1.22.161c.672.09 1.359.152 1.527.14.169-.013.45.02.626.074.226.068.068.094-.54.087-.471-.005-.906.031-.965.08-.076.064.038.074.38.036.462-.052 6.122.172 6.27.246.043.021-.269.03-.692.02-.405-.008-1.829-.03-3.078-.046-1.278-.017-2.73-.051-3.263-.075-.523-.024-1.6-.011-2.383.028l-1.43.07 1.285.05c.71.028 1.543.052 1.866.054.402.002.486.035.273.106-.196.066-.958.07-2.105.007-2.706-.147-7.148-.235-7.424-.144-.139.045-.065.099.165.118.229.02.376-.008.327-.06-.055-.058.192-.048.64.025.401.065.86.09 1.018.053.436-.099 2.192.07 1.892.18-.153.055-.803.044-1.678-.03-.786-.066-1.46-.095-1.498-.064-.038.032-.715.03-1.504-.004s-1.656-.026-1.925.02c-.6.1-.447.116 2.029.165 1.085.021 2.466.08 3.05.13l1.07.092q-.347.008-.695.017c-.6.014-4.072-.061-9.965-.274-1.504-.055-3.09-.076-3.51-.044a9 9 0 0 1-1.229.009l-.461-.049.592-.006c.379-.004.549-.052.473-.133l-.119-.128-1.457-.036-.09-.002c-.852-.022-1.661-.018-1.8.011-.14.03-.417.037-.616.017-.22-.022-.142-.05.192-.07q.278-.014.555-.032l-.401-.04c-.22-.022-.756-.028-1.187-.012a22 22 0 0 1-1.868-.045c-.599-.04-1.341-.058-1.664-.039-.524.031 1.7.233 4.143.37.53.03.773.053.537.052-.987-.005-.487.126.796.188.405.02.883.04 1.398.061 2.797.11 6.587.215 7.225.202 1.09-.023 3.704-.02 4.737.005 1.844.044 6.501.396 6.196.466-.165.038-.122.085.097.105.218.02-.077.053-.657.073l-1.054.036 1.515.141-.502.036a5.4 5.4 0 0 1-1.033-.052c-.292-.048-.58-.047-.64.003s.198.12.573.154c.375.035.487.068.248.073-.24.005-.39.06-.335.122l.101.112-.339-.123a2.8 2.8 0 0 0-.655-.14c-.285-.015-6.224-.272-6.913-.298l-1.135-.043 2.012.299-.78-.056c-.896-.065-3.687-.149-8.327-.289l-.34-.01a157 157 0 0 1-3.008-.115c-.209-.015-.35.003-.316.042.035.038-.682.023-1.591-.032-1.038-.063-1.533-.06-1.334.004.436.14-1.175.093-2.071-.059a10 10 0 0 0-1.419-.114l-.738.003.336.105c.234.073-.006.077-.731.023-1.567-.117-2.451-.08-2.79.075-.05.022-.169.044-.338.063-.778.092-3.917.255-4.502.212a4.6 4.6 0 0 0-1.112.083q-.28.06-.561.124l.108-.114.108-.114-.495.111c-.497.112-3.008.439-4.047.542-.372.038-.62.053-.644.033-.052-.041.227-.096.62-.121h.011c.387-.026 1.02-.1 1.391-.164l.69-.116q-.63.051-1.264.107a73 73 0 0 0-2.082.212c-.442.053-.141-.023.697-.173q.264-.047.537-.091c.682-.11 1.34-.195 1.63-.21.34-.016 1.346-.12 2.148-.213q.747-.087 1.493-.164l-.767.01c-.456.008-1.615.106-2.727.24l-1.794.216c-1.294.157-2.647.314-3.617.417a9 9 0 0 0-1.115.206c-.319.082-.7.13-.847.108s-.4.025-.562.106c-.265.134-1.295.235-2.052.203zm-13.862-.448c.17-.102.813-.29 1.428-.42.615-.128.968-.24.784-.249l-.334-.015.525-.226.526-.226-.46.129c-.253.07-.567.208-.697.306-.13.097-.433.206-.673.242s-.318.02-.174-.035-.031-.08-.388-.055-.66-.002-.675-.06c-.027-.107 1.397-.525 1.769-.519.113.002.495-.076.85-.173.657-.179 1.407-.174.94.007-.435.169.288.073.864-.115l.546-.178-.42-.085c-.23-.047-.39-.117-.354-.157s.201-.038.368.004l.303.076.66-.31c.363-.17.716-.29.783-.268s.348-.018.625-.09l.504-.132.637.107c.749.125 1.264.04 1.276-.21.011-.234.837-.5 1.637-.527.349-.011.682-.07.741-.132.06-.06.265-.154.458-.207.205-.057.21-.04.012.04l-.338.136.926-.117c2.302-.291 4.393-.599 4.419-.656.093-.204.47-.271 2.27-.392q1.802-.12 2.159-.046a.3.3 0 0 1 .063.019l.226.105-.85.106c-.467.058-.99.086-1.16.063-.172-.024-.24-.014-.152.021.09.036-.14.176-.508.311-.368.136-.564.244-.436.24s-.126.05-.563.122l-.795.131-.345-.116c-.24-.082-.65-.081-1.362.005-1.502.18-1.756.293-.857.367.794.066.656.37-.118.322a1.9 1.9 0 0 0-.674.096c-.214.083.055.079.892-.012l1.199-.128-1.579.36q-1.577.36-2.747.438c-.645.042-2.267.27-3.61.505-1.672.293-2.511.403-2.668.35-.223-.075.26-.154.972-.158.172-.001.194-.036.052-.085-.254-.088-1.32.049-1.442.185-.04.045-.232.072-.425.06-.194-.012-.754.09-1.244.227l-.891.248.31.048.309.047-.548.112c-.302.061-.58.149-.618.195s-.558.19-1.154.32l-1.084.235z" style="fill:url(#b);stroke:none;stroke-width:.2;stroke-linecap:round;stroke-linejoin:round;stroke-dasharray:none" transform="translate(-83.74 -122.653)"/><path d="M-86.62 10.67h26.458v26.458H-86.62z" style="fill:none;fill-opacity:1;stroke:none;stroke-width:.2;stroke-linecap:round;stroke-linejoin:round;stroke-dasharray:none;stroke-opacity:1" transform="translate(86.62 -10.67)"/><path d="M107.058 139.91c.349-.096.392-.089.149.027-.189.09.094.027.628-.14l.971-.302-.807.363-.807.363 1.668-.602c2.134-.77 2.084-.749 1.845-.766-.14-.01-.04-.069.316-.188.285-.096.505-.204.49-.241s-.297.048-.624.189c-.337.145-.546.197-.482.12.061-.075-.098-.046-.353.064-.256.11-.552.193-.659.186-.126-.01-.034-.066.259-.16.249-.081 1.678-.611 3.175-1.178a224 224 0 0 1 3.742-1.387 37 37 0 0 0 1.775-.673l.754-.317-.649.356c-.357.196-.74.376-.853.4s-1.28.49-2.597 1.034c-1.317.545-2.615 1.064-2.883 1.153l-.49.163.379-.08c.455-.098 4.284-1.39 4.793-1.617l.36-.161-.495.13c-.343.09-.065-.04.907-.426.772-.306 1.47-.553 1.553-.55.082.002.37-.059.64-.136l.49-.14-.557.303-.559.301.893-.247c.976-.27 1.484-.308.93-.07-.191.083-.427.145-.523.138-.253-.017-.863.264-.747.344.054.037-.009.107-.14.156-.13.048-.639.233-1.13.41q-.893.325-.858.406c.02.046-.225.195-.545.333-.319.137-.567.28-.552.316.016.036-.346.254-.804.485l-.833.42.365-.069.364-.068-.599.207c-.329.114-.756.274-.948.356l-.349.148.317-.222.318-.222-.829.355c-.456.196-1.453.582-2.216.858-.905.328-1.426.55-1.497.637-.06.074-.584.327-1.164.563s-2.403.979-4.053 1.652c-1.93.787-2.901 1.152-2.724 1.024q.275-.198-.459.152c-.471.225-.791.333-.896.302l-.162-.048 1.931-.774c2.032-.814 2.3-1.036.393-.325l-1.117.417 1.755-.72 1.754-.721-.73.223c-.401.123-2.356.904-4.345 1.737-1.988.832-3.78 1.563-3.98 1.624l-.366.11.439-.261c.477-.284-2.794 1.067-5.609 2.318-2.557 1.135-1.405.467 1.414-.822 2.533-1.157 2.623-1.313.17-.295-.88.365-1.051.421-.543.178.412-.197.723-.398.7-.452-.049-.113 3.251-1.652 5.158-2.406.647-.255 2.752-1.12 4.678-1.92 1.926-.802 3.55-1.44 3.61-1.42.059.019.436-.111.839-.29l.731-.326-.72.244c-.413.139-.539.16-.294.049q.422-.194.245-.248c-.202-.06-.075-.123.649-.324zm45.348-17.749c.013.03-.367.227-.844.436l-.869.38.492-.136c.27-.075 1.309-.485 2.307-.912 1.148-.49 1.775-.725 1.704-.64-.06.075-.384.254-.717.397-1.277.55-.193.19 2.262-.75l2.56-.981-2.04.854c-2.166.906-2.579 1.156-1.093.66l.903-.301-.751.332c-.414.183-.738.366-.72.407s-.254.2-.604.355l-.637.28.492-.136c.343-.095.388-.088.148.024s-.194.119.148.024c.27-.075 1.297-.48 2.28-.9 3.18-1.358 2.31-.761-1.209.83l-1.383.624 1.257-.597 1.257-.598-.598.21c-.33.114-2.319.96-4.422 1.878s-4.2 1.798-4.663 1.956l-.84.287.922-.415c2.17-.976 1.974-1.01-.296-.05-1.282.54-3.072 1.273-3.978 1.629-.948.372.906-.445 4.362-1.92 3.382-1.445 5.911-2.557 5.783-2.545-.126.012-2.687 1.07-5.692 2.35s-5.076 2.148-4.602 1.93c1.166-.54 1.04-.641-.157-.126l-.957.412.26-.254.26-.254 3.996-1.669c2.198-.917 4.564-1.868 5.258-2.112l1.261-.444.13-.158c.078-.095.41-.26.824-.407l.693-.247-.552.151c-.724.198-3.307 1.256-10.824 4.435-6.876 2.909-6.466 2.734-7.093 3.027-1.092.51-4.386 1.856-4.03 1.647.215-.127.848-.427 1.407-.666.56-.24.962-.44.895-.444s.064-.09.29-.188 1.97-.873 3.875-1.723c4.556-2.03 4.814-2.142 8.326-3.59 2.157-.89 3.09-1.305 3.3-1.47.323-.253 1.882-.97 1.92-.881m-33.372 14.568.352-.014-.376.11c-.207.061-.426.171-.487.245-.173.211 2.52-.877 5.887-2.379l3.049-1.36-.08.155c-.053.106-.35.26-.944.49l-.867.335.859-.244c.473-.134.677-.162.454-.062-.552.247-.451.377.106.137.245-.106.637-.248.872-.317.278-.081.36-.13.234-.138-.113-.008.02-.121.32-.273l.511-.259-.821.33-.821.33.792-.396c.436-.218.927-.414 1.09-.435l.297-.04-.241.169c-.133.093.412-.112 1.21-.456.905-.388 1.465-.593 1.488-.541.019.045-.105.123-.275.172-.17.05-1.186.497-2.256.994l-1.946.903 2.075-.881c2.55-1.083 2.565-1.002.019.101-1.016.44-1.983.895-2.15 1.01l-.305.212.35-.149.349-.148-.307.213c-.192.133-.498.258-.819.336-.282.067-.933.297-1.447.51-1.694.7-3.043 1.169-2.724.948.16-.112.664-.346 1.12-.52.454-.174.634-.256.4-.18-.235.074-.38.079-.323.01.057-.07-.186-.041-.538.062-.827.243-.853.255-.797.385.026.06-.09.152-.256.205a50 50 0 0 0-1.599.601c-.908.354-1.182.483-.916.43l.38-.075-.83.36c-.458.197-.892.411-.965.474-.167.146.718-.019 1.567-.291l.648-.208-.732.323c-.403.178-.778.313-.834.3-.138-.03-2.31.534-2.695.7-.194.083-.123.101.188.048l.498-.085-.46.212c-.252.116-.952.415-1.554.664-1.343.555-2.091.96-1.816.983l.201.017-.374.058c-.206.032-1.214.41-2.238.84-1.025.429-2.03.823-2.235.876-.205.052-2.367.929-4.805 1.948-4.639 1.938-8.109 3.303-8.354 3.287-.08-.005-.57.148-1.09.341-.519.193-1.059.363-1.2.376-.14.014-.576.16-.967.323l-.712.297.781-.424c.43-.233 1.016-.57 1.303-.75.74-.462 6.712-2.993 9.982-4.23a148 148 0 0 0 3.185-1.235l.513-.223-.361.076c-.226.048.555-.307 2.071-.943 1.342-.562 2.542-1.103 2.675-1.208.16-.125.6-.285 1.31-.475a28 28 0 0 0 2.016-.64c.522-.193 1.307-.486 1.743-.649l.794-.296-.212-.015c-.152-.011-.05-.071.363-.212a66 66 0 0 0 1.756-.654l1.18-.457-1.157.352c-.635.194-1.168.323-1.183.288-.015-.034-.316.057-.67.204l-.641.268.672-.358c.37-.196.828-.45 1.02-.566.202-.121.495-.214.7-.222zm-13.803 7.568c.019.044.531-.131 1.14-.389 1.118-.472 2.607-.988 1.976-.684-.589.284.823-.196 1.847-.628.537-.226 1.062-.406 1.166-.398.13.009-.168.15-.958.455-.804.31-.999.404-.652.312a13 13 0 0 0 1.31-.473l.816-.342-.427.286-.427.287.603-.198.603-.198-.533.238c-.293.131-.454.244-.358.251.111.008-.365.24-1.294.632l-1.47.619 1.141-.546 1.141-.546-1.275.476c-.75.28-1.168.402-1.014.296.438-.3-.185-.107-1.323.41-.573.262-1.038.485-1.033.496s.258-.049.561-.135c.363-.102-.57.315-2.712 1.213-4.52 1.895-8.621 3.573-8.77 3.588-.43.043.85-.572 3.414-1.642 2.063-.86 2.423-1.023 1.23-.554-.929.364-1.858.687-2.065.718s-.564.16-.793.289l-.416.233.313-.23c.173-.127.21-.186.081-.133-.128.054-.112.014.036-.089.148-.102 1.948-.917 4.001-1.81 2.053-.894 3.816-1.683 3.92-1.753.103-.071.202-.094.22-.05m48.95-20.898c.113.008.855-.3 2.035-.846l1.856-.858-.13.157c-.09.11.239.003 1.11-.362.68-.285-.471.26-2.56 1.212l-3.796 1.731.114.074.114.074-1.367.535c-.794.31-1.5.63-1.682.76-.218.157.39-.093 1.99-.817 1.267-.573 3.343-1.506 4.613-2.073l2.309-1.03-.652.397a9.7 9.7 0 0 1-1.367.662c-.393.147-.96.414-1.26.595l-.547.33.694-.308c2.02-.894 3.243-1.38 2.938-1.167l-.317.222.7-.292c.385-.16 1.17-.496 1.744-.745l1.044-.452-1.35.702a96 96 0 0 1-3.185 1.553c-2.27 1.053-3.085 1.558-1.086.673 2.18-.966 3.368-1.447 3.398-1.378.015.035-.265.175-.623.311l-.65.248.491-.136.492-.136-.553.312c-.673.38-1.33.688-3.949 1.852-1.177.523-2.12.985-2.261 1.108-.134.116-.476.312-.762.434-.285.123-.793.384-1.128.579l-.609.355.343-.318.343-.317-.891.448c-.49.246-1.051.484-1.247.53-.405.095-12.718 5.486-12.688 5.555.01.025-.793.389-1.786.808l-1.805.762 1.183-.448 1.184-.448-1.64.746-1.64.746.077-.151.077-.152-2.512 1.13-2.859 1.283c-.19.086-.894.392-1.565.681-1.25.54-1.684.606-.757.116.666-.353 9.39-4.25 17.122-7.651 3.307-1.455 6.053-2.679 6.1-2.72.048-.042-.183.04-.513.183-.33.142-.679.243-.775.224l-.176-.034-.095.15-.096.152-2.946 1.254c-1.62.69-2.613 1.096-2.205.9.408-.195.732-.377.72-.405s-3.708 1.531-8.212 3.465c-4.984 2.14-8.475 3.603-8.919 3.738l-.73.223 2.262-.981c1.34-.582 2.248-1.012 2.23-1.056-.019-.04.124-.142.315-.224.563-.242.336-.32-.241-.082l-.527.216.392-.209c.56-.299.429-.386-.192-.127-.29.12.029-.076.707-.436s1.603-.806 2.057-.993.96-.431 1.124-.544 2.169-1.003 4.455-1.978a404 404 0 0 0 7.537-3.315c1.86-.848 5.015-2.273 7.012-3.165 1.996-.893 3.562-1.628 3.478-1.634s-.048-.056.08-.11c.128-.056.313-.095.41-.088zm-18.838 8.683a215 215 0 0 0-3.335 1.524c-.438.212-1.443.67-2.233 1.02-1.485.657-1.988 1.019-1.156.83l.429-.096-.406.177c-.223.097-.39.213-.37.257.022.051.348-.072.888-.334.469-.23 3.247-1.473 6.173-2.764 5.132-2.264 8.88-4.013 10.355-4.833.388-.216.791-.403.897-.417s.093-.034-.028-.046l-.22-.022 1.257-.504c.798-.321 1.452-.633 1.792-.858l.537-.352-6.021 2.638a1425 1425 0 0 0-8.559 3.78zm2.493 1.55c-.163.16-.633.423-1.22.681l-.956.42.604-.196c1.389-.453-14.548 6.572-18.51 8.158-1.097.44-2.083.87-2.19.955-.273.219-.616.355-.482.192.066-.08-.21-.001-.66.187l-.771.323.89-.464c.488-.255 1.03-.506 1.204-.557.174-.05.303-.123.287-.16s.28-.143.656-.236c.782-.193 1.132-.324.904-.34-.087-.007.077-.112.364-.235s1.817-.81 3.401-1.526a895 895 0 0 1 9.027-3.97c3.38-1.468 6.5-2.854 6.931-3.08l.786-.413z" style="fill:#000;fill-opacity:.817647;stroke:none;stroke-width:.2;stroke-linecap:round;stroke-linejoin:round;stroke-dasharray:none;stroke-opacity:1" transform="translate(-121.569 -122.05)"/></svg>