<svg xmlns="http://www.w3.org/2000/svg" xmlns:xlink="http://www.w3.org/1999/xlink" xml:space="preserve" width="100" height="100" viewBox="0 0 26.458 26.458"><defs><linearGradient id="a"><stop offset="0" style="stop-color:#000;stop-opacity:.27880183"/><stop offset=".317" style="stop-color:#000;stop-opacity:.817647"/><stop offset="1" style="stop-color:#000;stop-opacity:0"/></linearGradient><linearGradient xlink:href="#a" id="b" x1="82.495" x2="163.949" y1="170.455" y2="170.455" gradientUnits="userSpaceOnUse"/></defs><path d="M-86.62 40.365h26.458v26.458H-86.62z" style="fill:none;fill-opacity:1;stroke:none;stroke-width:.2;stroke-linecap:round;stroke-linejoin:round;stroke-dasharray:none;stroke-opacity:1" transform="translate(86.62 -40.365)"/><path d="M139.38 166.34c-.401.037-1.417.09-2.258.12-4.593.163-6.473.215-7.823.216-1.01 0-1.435.031-1.307.092.216.103 8.473.03 11.126-.098a63 63 0 0 1 1.978-.073l.423.002-.423.072c-.233.039-1.09.097-1.905.13-.814.032-1.541.087-1.615.122s-.428.048-.786.028l-.652-.037v.336l.997-.04a352 352 0 0 1 3.768-.101l2.77-.064.23.121c.331.175 4.246.112 4.246-.067 0-.036.92-.087 2.046-.114a55 55 0 0 0 3.66-.22c1.759-.186 2.313-.212 2.07-.096-.207.099-4.25.48-5.822.55-.683.03-1.434.09-1.669.135l-.426.08.635-.051c.37-.03.635-.014.635.037s-.389.09-.864.09c-.503 0-.79-.035-.688-.084.095-.046.04-.083-.125-.083-.164 0-.298.031-.298.07s-.286.111-.635.16l-.635.091.689.006.688.006-.547.122c-.301.067-.96.124-1.465.125-.504.002-.917.036-.917.077s1.049.064 2.331.051l2.33-.023 1.753-.218c2.037-.253 2.249-.263 1.754-.087l-.366.13 1.19-.14c.654-.078 1.268-.118 1.365-.089s.032.052-.144.052-.247.056-.158.125l.163.125h-.877c-.482 0-.877.03-.877.068s-.365.053-.813.034c-.447-.02-.902.007-1.01.06-.14.066.03.077.572.037.546-.04.713-.03.572.038-.235.112.543.119 1.385.012.397-.05.439-.075.141-.085-.233-.007.018-.05.556-.096.683-.058 1.01-.056 1.081.007s.265.064.649.003c.3-.047.671-.064.823-.036s.277.013.277-.032.35-.08.777-.076 1.062-.02 1.41-.053c1.172-.11.655.102-.565.232l-1.2.127 1.243-.05 1.243-.05-.201.096c-.111.053-.365.096-.564.096-.2 0-.605.08-.9.18l-.538.179.564-.045c.31-.025.787-.072 1.058-.105.944-.115.53.21-.423.333-.563.072-.72.118-.407.12.281.002.431.042.334.088-.098.047-.308.06-.467.032-.355-.065-1.68.133-1.492.223.215.102 1.85.011 2.394-.134l.496-.132.115.1.114.102.761-.147c.434-.084.762-.108.762-.057 0 .125-1.3.368-2.52.472-.558.048-.868.111-.696.143.17.031.774-.013 1.34-.098 1.13-.17 1.41-.099.387.099-.73.14-.998.498-.315.42.258-.029.385-.004.334.068-.045.062.131.114.392.115.97.002.813.115-.296.213-1.525.135-1.213.243.702.243.962 0 1.485.032 1.377.083-.096.046-.643.084-1.216.085-.677 0-.91.026-.665.071l.377.07-.47.054c-.259.03-1.04.053-1.737.053-.782 0-1.438.05-1.715.132l-.45.133.4.074c.53.1 2.3.097 3.2-.004.49-.055.724-.053.724.006 0 .048.245.064.552.035.658-.061 2.552.031 2.552.125 0 .085-2.135.232-4.75.326-1.138.041-2.126.092-2.196.113-.336.099 3.35.044 4.405-.066 1.49-.155 1.412-.157 1.412.037 0 .089.126.184.28.212.165.03.206-.01.099-.099l-.18-.15.333.09c.537.145.052.359-.938.414l-.917.05.125.193.124.193-.87.056c-.48.031-.957.098-1.061.148-.13.061-.019.069.349.023.297-.037.92-.083 1.386-.102l.847-.035-.494.118c-.6.144-.648.26-.08.195.228-.025.492-.01.586.035.201.096-2.4.45-4.312.587-2.06.147-1.947.2.363.17 1.374-.018 2.103.004 2.103.063 0 .05-.39.09-.865.09-.476 0-1.079.033-1.34.073-.613.095-8.748.295-10.774.265-.853-.013-10.185-.035-20.737-.048-10.552-.014-21.217-.045-23.7-.068-4.171-.038-14.743.056-11.568.103l1.411.022-.76.067c-.417.037-1.433.039-2.257.003-.823-.035-1.339-.069-1.145-.075s.353-.068.353-.138-.158-.123-.353-.115c-1.237.047-4.17-.018-4.02-.09.096-.045.992-.083 1.992-.083.999 0 1.817-.034 1.817-.075 0-.042-.246-.057-.546-.034s-.99 0-1.534-.054a32 32 0 0 0-2.417-.1c-1.834-.003-2.184-.15-.387-.161l1.357-.01-.948-.065c-.522-.037-1.156-.132-1.41-.211-.255-.08-.313-.12-.13-.09s.413.016.51-.03c.098-.047.9-.088 1.783-.092l1.606-.007-1.16-.121-1.16-.121.031-.184.032-.184 3.313.026 3.313.026-.16-.124c-.189-.144-.965-.252-.965-.134 0 .044-.19.08-.423.08s-.423-.04-.423-.09c0-.06-.387-.07-1.128-.034l-1.129.056v-.136c0-.074.304-.225.676-.335s.736-.248.808-.308.24-.079.374-.042c.133.037.055.104-.173.15-.293.058.065.075 1.207.057.893-.013 1.623-.003 1.623.024 0 .057 3.136.011 3.34-.049.077-.022-.168-.043-.543-.047l-.682-.006.564-.071c.4-.05.048-.073-1.199-.077-.974-.003-1.763-.044-1.763-.09 0-.12-.775-.102-.93.021l-.13.104-.518-.145-.518-.146.696-.007c.382-.004.536-.025.342-.048s-.353-.095-.353-.16-.283-.12-.634-.123l-.635-.005.701-.083a8 8 0 0 1 1.24-.04c.374.028.448.014.244-.046-.326-.096-2.117-.118-2.59-.032-.165.03-.3.012-.3-.04s.38-.138.846-.19c.476-.053.846-.155.846-.233 0-.08.305-.162.706-.192.774-.057.967-.215.263-.215-.314 0-.39-.048-.263-.166l.179-.167h-1.204c-1.864 0-.943-.158 1.03-.176q3.016-.03 2.881-.197c-.036-.045.316-.106.781-.136l.847-.053-.776-.01c-.427-.005-.776-.047-.776-.093s-.254-.083-.564-.083-.564.037-.564.083c0 .111-1.055.107-1.181-.005-.088-.078-.618-.133-1.5-.157-.155-.004-.098-.042.128-.084s.733-.06 1.129-.04c.395.02 1.256.049 1.913.065l1.195.029.426-.192c.245-.11.939-.233 1.627-.287 2.205-.175 2.389-.215 1.058-.23-1.797-.021-2.036-.157-.386-.22 1.747-.067 2.166-.135 2.222-.36.054-.216-.04-.225-.606-.058-.48.141-1.229.167-1.229.041 0-.045.162-.083.36-.083.483 0 1.809-.452 1.674-.571-.058-.052.031-.094.2-.094.168 0 .305.056.305.125 0 .068.223.124.494.123l.494-.001-.391-.073-.39-.073.626-.099c.696-.11 1.221-.036.578.081l-.407.074.471.054c.26.029 1.335.032 2.39.007 2.99-.072 4.39-.063 4.705.03.198.058-.242.088-1.39.094a48 48 0 0 0-2.524.074l-.847.063.988.014c2.976.042 5.891.051 5.777.018-.071-.021.028-.096.22-.166l.35-.127-.517.057c-.349.039-.479.024-.4-.046.137-.123 3.042-.222 7.125-.243 1.888-.01 2.285-.025 1.199-.046-.892-.017-1.622-.067-1.622-.11 0-.093.074-.096 2.75-.08l2.046.011.006-.11.006-.109.227.105c.134.063.794.104 1.618.103 2.169-.005 2.495-.017 2.872-.105.238-.055.353-.051.353.012 0 .051-.127.093-.282.093s-.282.038-.282.084c0 .108 5.7.037 10.29-.129 1.857-.067 3.635-.118 3.95-.114l.572.007z" style="fill:url(#b);fill-opacity:.817647;stroke:none;stroke-width:.2;stroke-linecap:round;stroke-linejoin:round;stroke-dasharray:none;stroke-opacity:1" transform="translate(-82.006 -152.85)"/><path d="M159.878 158.16c-.387.002-.429-.017-.145-.065.22-.037-.089-.05-.686-.03l-1.085.036.935-.138.936-.139-1.889.143c-2.417.183-2.36.177-2.12.256.14.046.02.077-.38.098-.32.018-.578.065-.573.105s.318.031.695-.019c.389-.052.618-.047.53.011-.085.056.086.07.381.031s.623-.042.73-.007c.127.042.017.072-.312.087-.28.012-1.902.149-3.605.303-1.704.155-3.616.315-4.25.357s-1.542.124-2.019.184l-.867.108.77-.174c.425-.095.872-.168.994-.162s1.459-.136 2.97-.317c1.513-.18 2.997-.34 3.3-.356l.549-.029-.412-.021c-.495-.026-4.805.216-5.394.302l-.417.061.546.005c.378.003.055.056-1.057.173-.881.092-1.671.148-1.755.124s-.398-.041-.697-.038l-.544.006.662-.145.662-.145-.988.004c-1.081.004-1.614-.092-.975-.177.22-.03.48-.027.578.005.253.083.963-.028.868-.136-.045-.05.04-.101.189-.114l1.281-.1q1.012-.078 1-.166c-.007-.05.29-.13.658-.178.368-.05.665-.121.66-.16s.43-.155.969-.258l.978-.186-.394-.03-.394-.03.676-.043c.371-.023.856-.066 1.078-.094l.402-.051-.392.13-.391.132.955-.126c.525-.069 1.663-.18 2.527-.247 1.025-.079 1.625-.156 1.725-.221.083-.055.695-.162 1.36-.238l4.646-.531c2.213-.253 3.317-.351 3.098-.274q-.341.12.515-.026c.55-.093.91-.113 1.008-.056l.153.09-2.21.24c-2.326.252-2.667.395-.5.21l1.269-.11-2.013.236-2.013.235.815-.024c.447-.013 2.684-.255 4.97-.536s4.34-.517 4.564-.523l.407-.01-.526.137c-.574.149 3.18-.298 6.439-.766 2.959-.425 1.58-.082-1.695.422-2.94.452-3.079.58-.261.24 1.011-.12 1.203-.13.61-.028-.482.082-.86.194-.853.252.016.122-3.825.742-6.004.969-.739.077-3.154.359-5.367.626-2.213.268-4.068.459-4.123.424-.054-.035-.48-.008-.946.059l-.847.122.812-.045c.464-.027.6-.014.316.03-.326.05-.438.11-.326.175.189.11.04.138-.761.142zm-51.77 5.23c-.003-.032.444-.122.996-.199l1.004-.139-.545.002c-.3.001-1.486.125-2.637.275-1.322.172-2.035.235-1.937.17.085-.056.47-.144.853-.195 1.473-.195.255-.133-2.542.131l-2.916.275 2.346-.289c2.49-.306 2.987-.439 1.316-.35l-1.015.053.87-.124c.478-.068.864-.16.858-.204s.32-.126.725-.183l.736-.104-.545.002c-.38.002-.423-.017-.144-.062s.235-.064-.145-.062c-.3 0-1.472.123-2.605.27-3.664.477-2.593.129 1.487-.483l1.603-.24-1.466.246-1.466.247.675-.044c.372-.025 2.663-.319 5.092-.653 2.428-.335 4.842-.634 5.362-.665l.947-.056-1.07.158c-2.514.373-2.323.456.29.127a235 235 0 0 1 4.563-.53c1.082-.11-1.061.192-5.044.71-3.896.506-6.82.917-6.685.938.132.022 3.073-.327 6.534-.774s5.842-.742 5.292-.655c-1.356.215-1.257.346.123.162l1.104-.147-.342.178-.342.177-4.594.562c-2.526.31-5.234.606-6.018.66l-1.425.096-.18.12c-.109.07-.498.142-.966.176l-.784.056h.611c.801-.001 3.764-.345 12.415-1.441 7.915-1.003 7.442-.942 8.172-1.06 1.272-.206 5.049-.64 4.622-.532-.258.066-.997.189-1.64.274-.645.084-1.118.171-1.05.193.066.022-.093.07-.354.105-.26.036-2.279.327-4.485.646-5.275.765-5.572.805-9.604 1.281-2.475.293-3.555.449-3.819.553-.407.16-2.218.443-2.23.348zm38.547-5.304-.366-.08.42-.006c.23-.004.487-.053.57-.109.242-.158-2.843.185-6.742.752l-3.53.512.127-.129c.087-.088.438-.159 1.115-.225l.988-.095-.953.01c-.524.005-.742-.021-.484-.06.639-.093.575-.245-.068-.16-.282.038-.727.073-.988.077-.31.006-.407.031-.281.073.113.037-.056.111-.409.179l-.601.115.94-.103.94-.103-.93.175c-.513.096-1.074.157-1.247.135l-.316-.04.297-.1c.164-.055-.456 0-1.376.122-1.043.138-1.679.188-1.686.132-.006-.048.143-.091.333-.094s1.363-.169 2.608-.367l2.264-.361-2.39.306c-2.936.376-2.928.293.011-.103 1.172-.158 2.3-.343 2.505-.412l.375-.123-.402.051-.402.051.377-.124c.237-.078.588-.12.94-.11.309.01 1.045-.041 1.635-.112 1.945-.23 3.468-.33 3.075-.2-.198.065-.784.159-1.303.208s-.727.08-.464.07c.263-.012.413.022.334.074s.178.088.57.08c.92-.016.95-.022.931-.161-.009-.065.137-.124.324-.131.186-.007 1.004-.08 1.818-.161 1.036-.103 1.356-.156 1.067-.175l-.413-.027.96-.13c.528-.07 1.036-.162 1.13-.204.214-.097-.742-.17-1.693-.13l-.727.03.847-.12c.466-.065.891-.097.945-.07.132.065 2.526.091 2.97.032.223-.03.156-.066-.178-.096l-.536-.048.534-.085c.294-.046 1.1-.15 1.792-.233 1.54-.184 2.429-.378 2.154-.472l-.202-.07.402.043c.22.023 1.365-.077 2.543-.223s2.327-.262 2.552-.26c.226.004 2.703-.275 5.505-.619 5.333-.654 9.296-1.06 9.542-.98.08.026.628.006 1.218-.044s1.195-.072 1.343-.048c.149.024.638-.002 1.088-.057l.818-.1-.927.204c-.51.112-1.211.284-1.558.382-.897.252-7.772 1.128-11.492 1.465-1.672.151-3.306.31-3.632.355l-.594.08.394.022c.245.013-.66.151-2.404.367-1.543.19-2.934.398-3.102.464-.202.079-.7.118-1.484.115a31 31 0 0 0-2.257.088l-1.98.169-.903.078.213.07c.153.05.03.081-.435.11-.357.021-1.254.098-1.994.17l-1.345.131 1.29-.036c.709-.02 1.293-.005 1.298.032.005.038.341.028.747-.02l.738-.09-.796.168c-.437.093-.983.218-1.213.28a1.9 1.9 0 0 1-.784.03zm16.402-3.685c-.006-.046-.584-.012-1.284.077-1.287.162-2.967.27-2.23.141.688-.12-.901-.026-2.08.122-.618.078-1.209.113-1.313.078-.13-.043.217-.101 1.117-.188.916-.089 1.144-.127.762-.13-.3-.002-.968.048-1.484.112l-.939.117.523-.165.523-.164-.676.032-.677.033.617-.09c.34-.05.538-.116.441-.148-.111-.037.446-.136 1.515-.27l1.691-.212-1.332.227-1.332.228 1.449-.125c.852-.073 1.316-.081 1.126-.02-.538.176.158.153 1.48-.049.664-.101 1.207-.194 1.206-.207s-.279-.02-.616-.017c-.402.004.679-.154 3.142-.459 5.196-.643 9.9-1.187 10.058-1.162.453.071-1.042.33-3.989.69-2.37.288-2.788.35-1.425.212 1.06-.108 2.108-.176 2.33-.151s.626-.007.899-.07l.496-.117-.39.14c-.215.077-.27.125-.122.107.147-.018.119.016-.064.076-.182.06-2.27.375-4.64.698-2.37.324-4.413.623-4.54.664s-.236.037-.242-.01zm-56.399 7.327c-.114-.037-.966.066-2.337.283l-2.159.342.18-.118c.126-.083-.243-.066-1.245.058-.783.097.56-.127 2.984-.499l4.407-.674-.095-.102-.095-.1 1.562-.159c.905-.092 1.724-.215 1.95-.293.27-.093-.428-.012-2.283.268-1.47.22-3.875.576-5.346.79l-2.674.388.787-.212a11 11 0 0 1 1.598-.28 10.4 10.4 0 0 0 1.47-.244l.658-.175-.803.115c-2.337.333-3.735.481-3.36.355l.392-.13-.804.098c-.443.053-1.347.171-2.01.26l-1.205.164 1.593-.324c.875-.178 2.553-.477 3.727-.664 2.641-.42 3.626-.694 1.314-.364-2.523.36-3.883.512-3.893.438-.005-.038.324-.1.73-.137l.741-.068-.544.002-.545.002.66-.156c.802-.19 1.568-.315 4.599-.751 1.362-.196 2.467-.395 2.648-.477.172-.077.581-.176.91-.22.33-.043.927-.161 1.329-.262l.73-.182-.447.216-.446.216 1.047-.198c.576-.109 1.222-.192 1.436-.185.443.015 14.67-1.957 14.66-2.032-.003-.027.93-.167 2.072-.311l2.077-.262-1.346.122-1.347.121 1.903-.29 1.904-.29-.125.127-.124.126 2.911-.43c1.602-.238 3.092-.458 3.313-.49.22-.033 1.034-.144 1.807-.247 1.442-.193 1.907-.142.81.088-.787.165-10.89 1.639-19.828 2.892-3.824.536-7.003.997-7.064 1.025s.2.009.58-.042c.381-.05.769-.056.862-.013l.17.08.143-.121.143-.121 3.394-.438c1.866-.241 3.004-.372 2.527-.29-.476.081-.862.172-.858.202s4.256-.505 9.45-1.19c5.746-.757 9.759-1.253 10.255-1.267l.814-.024-2.61.354c-1.546.21-2.606.387-2.6.434.006.044-.17.104-.39.134-.65.086-.44.22.223.142l.603-.07-.463.098c-.664.142-.555.261.159.174.332-.04-.053.066-.855.235a34 34 0 0 1-2.404.42c-.521.06-1.112.164-1.314.23-.202.065-2.522.398-5.156.74-2.633.34-6.554.89-8.713 1.221s-5.817.878-8.13 1.216c-2.312.338-4.135.637-4.051.664s.032.067-.116.086c-.147.02-.348.01-.447-.023zm21.895-3.438c1.618-.239 3.36-.507 3.873-.596.512-.09 1.68-.269 2.593-.399 1.717-.245 2.34-.462 1.432-.498l-.468-.02.468-.064c.258-.035.463-.104.457-.151-.007-.056-.379-.022-1.01.09-.55.097-3.767.569-7.151 1.047-5.935.839-10.297 1.544-12.053 1.949-.462.106-.932.181-1.044.166s-.105.01.015.053l.218.078-1.438.158c-.914.1-1.676.23-2.093.357l-.654.2 6.957-.968a1626 1626 0 0 0 9.898-1.402zm-2.093-2.153c.216-.112.775-.242 1.454-.337l1.105-.155-.677.031c-1.56.073 16.868-2.526 21.402-3.018 1.256-.136 2.394-.292 2.53-.347.344-.14.736-.18.55-.058-.09.06.215.056.732-.008l.888-.11-1.05.215c-.578.119-1.208.218-1.402.222-.193.003-.347.039-.341.079s-.33.065-.743.056c-.859-.02-1.256.016-1.027.091.086.029-.113.088-.444.131-.33.044-2.104.305-3.94.58-1.838.276-6.533.935-10.435 1.464-3.902.53-7.513 1.05-8.023 1.155l-.929.192zM162.523 202.396c-.301-.177-.325-.213-.08-.124.188.07-.045-.085-.518-.344l-.861-.471.794.313.794.313-1.537-.751c-1.967-.962-1.919-.941-1.771-.761.086.105-.022.077-.343-.09-.258-.134-.482-.213-.497-.176s.231.175.549.307c.327.135.503.246.406.255-.093.01.033.101.281.204s.505.252.571.333c.078.094-.023.07-.286-.07a148 148 0 0 0-2.948-1.408 209 209 0 0 1-3.475-1.66 35 35 0 0 0-1.659-.777l-.727-.308.684.207c.376.113.76.257.851.319.092.062 1.2.558 2.463 1.102 1.262.545 2.494 1.093 2.736 1.22l.441.23-.31-.21c-.372-.252-3.837-2.04-4.337-2.239l-.354-.14.422.257c.292.179.015.075-.906-.34-.73-.328-1.37-.645-1.424-.705s-.288-.22-.522-.357l-.426-.247.585.18.585.182-.77-.455c-.841-.497-1.208-.829-.67-.606.186.076.387.199.447.272.156.19.761.422.74.284-.01-.064.081-.07.203-.011l1.044.507q.824.402.858.319c.019-.046.288.021.598.15.31.128.576.203.59.166.016-.036.411.065.88.226l.85.291-.291-.208-.291-.209.545.276c.3.152.698.34.884.418l.337.142-.368-.068-.368-.067.803.333c.442.184 1.38.615 2.084.958.835.406 1.339.617 1.448.606.092-.009.62.182 1.173.424l3.869 1.693c1.842.806 2.748 1.233 2.54 1.199q-.325-.054.413.216c.473.174.762.323.81.418l.075.149-1.834-.816c-1.93-.859-2.265-.892-.49-.049l1.038.494-1.679-.73-1.678-.728.644.357c.355.196 2.21 1.023 4.124 1.838s3.624 1.563 3.8 1.662l.322.18-.476-.125c-.519-.136 2.616 1.216 5.376 2.32 2.506 1.002 1.267.661-1.522-.419-2.506-.97-2.676-.923-.321.089.844.363.998.444.487.257-.413-.152-.763-.23-.785-.175-.047.113-3.334-1.129-5.137-1.942-.612-.276-2.626-1.15-4.476-1.944-1.85-.793-3.384-1.487-3.41-1.543-.025-.056-.369-.23-.763-.388l-.718-.286.653.337c.373.192.472.266.23.172-.277-.107-.393-.107-.338.001.092.184-.036.14-.66-.23zm-42.771-19.457c.012-.03.404.099.87.288l.848.345-.424-.25c-.234-.139-1.216-.581-2.183-.985-1.111-.463-1.695-.74-1.588-.75.094-.009.435.092.758.226 1.24.513.263.002-2.038-1.065l-2.4-1.113 1.964.837c2.083.887 2.535 1.003 1.193.305l-.814-.424.735.295c.405.163.75.262.767.22.017-.04.311.039.653.177l.622.251-.424-.25c-.296-.175-.32-.212-.082-.122.239.09.214.054-.082-.121-.233-.138-1.203-.576-2.156-.973-3.079-1.284-2.077-1.09 1.392.269l1.363.534-1.26-.465-1.26-.465.547.275c.3.15 2.224.957 4.274 1.793 2.05.835 4.071 1.694 4.49 1.908l.763.39-.908-.358c-2.135-.841-2.028-.68.163.245 1.236.522 2.947 1.267 3.803 1.656.895.406-.918-.326-4.264-1.722-3.275-1.367-5.747-2.366-5.652-2.284.092.08 2.547 1.14 5.454 2.356s4.901 2.064 4.43 1.885c-1.157-.443-1.144-.282.017.198l.93.384-.353-.004-.352-.004-3.843-1.64c-2.113-.903-4.362-1.901-4.997-2.218l-1.155-.577-.199.02c-.118.012-.455-.107-.835-.294l-.637-.314.475.283c.623.37 3.092 1.445 10.349 4.503 6.638 2.798 6.24 2.632 6.865 2.868 1.089.41 4.235 1.784 3.85 1.68-.232-.062-.866-.297-1.408-.522s-.951-.369-.91-.319-.105.018-.325-.072-1.93-.773-3.8-1.518c-4.471-1.78-4.722-1.884-8.087-3.34-2.065-.893-2.981-1.258-3.237-1.29-.394-.049-1.939-.643-1.902-.731zm32.535 13.26-.245-.239.33.188c.18.103.404.18.496.171.265-.026-2.299-1.158-5.605-2.473l-2.992-1.191.161-.054c.111-.036.419.065.976.322l.815.375-.745-.434c-.41-.239-.567-.363-.348-.276.542.215.567.053.026-.17a9 9 0 0 1-.805-.392c-.243-.139-.331-.162-.254-.068.07.086-.098.072-.405-.033l-.524-.179.781.347.78.346-.808-.28c-.444-.153-.91-.36-1.034-.46l-.225-.182.28.051c.153.029-.355-.21-1.13-.532-.877-.364-1.395-.615-1.374-.666.019-.046.156-.014.305.071s1.141.486 2.206.89l1.934.737-2.005-.842c-2.466-1.035-2.418-1.103.059-.085.987.406 1.953.768 2.146.804l.352.066-.338-.142-.337-.142.354.067c.222.042.515.169.783.34.236.151.833.449 1.325.661 1.624.702 2.856 1.321 2.487 1.252-.186-.035-.687-.225-1.113-.423-.427-.198-.604-.267-.395-.155.21.112.31.211.223.22s.095.16.403.335c.724.412.75.42.803.29.025-.06.167-.043.315.037s.82.396 1.491.703c.855.39 1.13.493.914.343l-.307-.215.809.332c.444.183.884.339.977.346.215.015-.492-.493-1.25-.899l-.58-.31.716.289c.394.159.74.327.769.375.07.119 1.917 1.252 2.291 1.407.188.077.153.015-.092-.167l-.392-.29.456.174c.25.096.928.379 1.506.628 1.287.555 2.072.797 1.904.588l-.123-.154.291.223c.16.123 1.099.566 2.085.986.987.42 1.936.85 2.11.958s2.233 1.013 4.578 2.014c4.462 1.904 7.74 3.388 7.892 3.572.05.06.485.297.968.527s.962.492 1.066.581c.104.09.497.294.873.455l.684.291-.82-.251c-.45-.139-1.08-.314-1.397-.39-.819-.197-6.589-2.623-9.643-4.055a138 138 0 0 0-2.995-1.376l-.5-.205.295.201c.184.126-.587-.174-2.046-.795-1.292-.55-2.474-1.014-2.637-1.035-.195-.025-.601-.222-1.209-.588a26 26 0 0 0-1.796-.97l-1.621-.772-.739-.35.131.16c.094.114-.017.084-.392-.107a61 61 0 0 0-1.632-.776l-1.109-.51 1.02.567c.56.311 1.007.595.993.63-.015.035.25.183.59.328l.617.264-.7-.222a28 28 0 0 0-1.08-.32 1.55 1.55 0 0 1-.624-.337zm14.543 4.4c.018-.044-.447-.282-1.035-.53-1.08-.455-2.436-1.14-1.801-.91.593.215-.687-.442-1.675-.86-.518-.218-.995-.461-1.059-.54-.08-.098.219.012.96.354.755.348.95.42.655.24a12 12 0 0 0-1.208-.59l-.786-.334.487.1.487.099-.542-.286-.542-.285.524.208c.288.114.475.148.415.075-.069-.083.413.089 1.309.468l1.417.6-1.146-.42-1.146-.42 1.187.564c.698.331 1.062.54.884.505-.504-.097.048.206 1.173.643.566.22 1.034.39 1.038.38.005-.012-.206-.147-.47-.3-.313-.184.603.18 2.665 1.057 4.352 1.85 8.272 3.559 8.381 3.653.318.272-.97-.196-3.435-1.25-1.983-.848-2.337-.987-1.211-.476.876.398 1.724.825 1.884.95.16.124.49.283.733.355l.442.129-.371-.06c-.205-.032-.27-.016-.147.037.123.052.084.07-.087.037-.171-.032-1.947-.727-3.946-1.544s-3.732-1.506-3.85-1.528c-.12-.023-.202-.077-.184-.121m-47.392-19.78c-.07-.085-.783-.391-1.954-.838l-1.844-.703.197-.02c.138-.014-.157-.17-.995-.527-.656-.278.497.15 2.561.95l3.754 1.457-.025-.132-.024-.132 1.29.586c.748.34 1.445.613 1.658.65.256.044-.327-.209-1.904-.826-1.25-.49-3.292-1.296-4.539-1.792l-2.266-.902.714.18c.393.1 1.014.323 1.379.497s.932.385 1.26.47l.597.153-.68-.272c-1.978-.794-3.136-1.314-2.783-1.249l.368.067-.673-.287c-.37-.159-1.13-.476-1.688-.705l-1.016-.417 1.395.457c.767.251 2.216.769 3.22 1.15 2.257.86 3.156 1.079 1.199.293-2.136-.857-3.267-1.355-3.239-1.424.015-.036.3.063.635.22l.609.284-.424-.251-.425-.251.59.17c.716.207 1.372.453 3.94 1.48 1.153.46 2.109.8 2.29.813.17.012.537.116.814.23.277.115.799.29 1.16.388l.656.18-.452-.019-.452-.019.91.314c.5.172 1.043.4 1.205.505.338.218 12.353 5.1 12.382 5.03.01-.025.803.285 1.761.69l1.742.735-1.106-.518-1.105-.519 1.62.63 1.62.631-.158.052-.159.052 2.473.976 2.812 1.11c.187.074.873.355 1.524.623 1.215.501 1.552.76.587.453-.693-.222-9.26-3.624-16.817-6.68-3.232-1.306-5.926-2.379-5.987-2.383s.15.1.471.233c.32.132.624.307.675.388l.093.148.17-.04.17-.038 2.851 1.193c1.568.656 2.515 1.07 2.106.92s-.755-.25-.766-.222c-.012.029 3.553 1.535 7.921 3.347 4.834 2.006 8.195 3.435 8.587 3.653l.644.357-2.2-.903c-1.305-.534-2.214-.872-2.232-.827-.017.04-.183.011-.37-.066-.545-.226-.448-.011.104.228l.504.219-.409-.13c-.584-.184-.558-.03.04.226.277.119-.074.033-.78-.192a27 27 0 0 1-2.072-.75c-.434-.189-.944-.373-1.133-.41s-2.154-.822-4.367-1.746a376 376 0 0 0-7.366-2.978c-1.838-.713-4.948-1.933-6.91-2.712-1.96-.779-3.523-1.364-3.471-1.301.051.063-.007.073-.132.021a1 1 0 0 1-.335-.227zm18.688 7.162c1.374.542 2.859 1.117 3.3 1.277.442.16 1.436.545 2.21.856 1.453.583 2.043.684 1.355.23l-.354-.234.395.161c.218.089.41.125.43.08.02-.051-.284-.195-.83-.39-.474-.17-3.204-1.252-6.067-2.405-5.02-2.022-8.753-3.431-10.315-3.894-.41-.121-.812-.274-.892-.339-.08-.064-.086-.04-.014.053l.131.17-1.194-.53c-.759-.337-1.415-.578-1.8-.66l-.606-.13 5.877 2.385c3.232 1.312 7 2.829 8.374 3.37zm-.573-2.845c.222.002.72.149 1.294.38l.934.378-.542-.287c-1.246-.66 14.339 5.625 18.1 7.3 1.043.464 2.004.855 2.135.87.337.04.662.185.457.205-.1.01.139.149.572.333l.743.316-.92-.3c-.507-.164-1.045-.37-1.197-.457-.152-.086-.289-.127-.304-.09s-.288-.095-.604-.295c-.658-.415-.984-.569-.843-.397.053.065-.13.024-.409-.092s-1.783-.71-3.345-1.322a833 833 0 0 1-8.82-3.566c-3.29-1.348-6.35-2.57-6.797-2.716l-.815-.263z" style="fill:#000;fill-opacity:.817647;stroke:none;stroke-width:.2;stroke-linecap:round;stroke-linejoin:round;stroke-dasharray:none;stroke-opacity:1" transform="translate(-121.569 -151.746)"/></svg>