<svg width="24" height="24" xmlns="http://www.w3.org/2000/svg"><path d="M11.873 17.695h.495c.353 0 .685-.164.899-.445l3.143-4.136 3.144 4.136a1.129 1.129 0 0 0 .898.445h.496l-4.01-5.275 3.83-5.04h-.495c-.353 0-.685.165-.899.446l-2.964 3.9-2.965-3.9a1.128 1.128 0 0 0-.898-.446h-.496l3.831 5.04-4.01 5.275z"/><path d="M12 12.84v-1.26a4.623 4.623 0 0 0-5.388-4.558C4.36 7.385 2.76 9.42 2.76 11.7v1.2c0 2.753 2.006 4.95 4.565 4.981a4.618 4.618 0 0 0 4.497-3.36h-.432a.676.676 0 0 0-.61.384 3.783 3.783 0 0 1-4.295 2.034c-1.72-.396-2.885-2.006-2.885-3.77v-.328H12zm-8.4-.962c0-1.977 1.178-3.594 2.908-3.98a3.786 3.786 0 0 1 4.652 3.682V12H3.6v-.122z"/><style>path{fill:#191610}@media (prefers-color-scheme:dark){path{fill:#fefefe}}</style></svg>