<?xml version="1.0" encoding="UTF-8" standalone="no"?>
<!-- Created with Inkscape (http://www.inkscape.org/) -->

<svg
   width="31.999998mm"
   height="31.999994mm"
   viewBox="0 0 31.999998 31.999994"
   version="1.1"
   id="svg1"
   inkscape:version="1.4.3 (0d15f75, 2025-12-25)"
   sodipodi:docname="dibujo.svg"
   xmlns:inkscape="http://www.inkscape.org/namespaces/inkscape"
   xmlns:sodipodi="http://sodipodi.sourceforge.net/DTD/sodipodi-0.dtd"
   xmlns="http://www.w3.org/2000/svg"
   xmlns:svg="http://www.w3.org/2000/svg">
  <sodipodi:namedview
     id="namedview1"
     pagecolor="#505050"
     bordercolor="#eeeeee"
     borderopacity="1"
     inkscape:showpageshadow="0"
     inkscape:pageopacity="0"
     inkscape:pagecheckerboard="0"
     inkscape:deskcolor="#505050"
     inkscape:document-units="mm"
     inkscape:zoom="0.50835204"
     inkscape:cx="331.46321"
     inkscape:cy="570.47081"
     inkscape:window-width="1321"
     inkscape:window-height="1000"
     inkscape:window-x="1913"
     inkscape:window-y="0"
     inkscape:window-maximized="0"
     inkscape:current-layer="layer1">
    <inkscape:page
       x="0"
       y="0"
       width="31.999998"
       height="31.999994"
       id="page2"
       margin="0"
       bleed="0" />
  </sodipodi:namedview>
  <defs
     id="defs1">
    <inkscape:path-effect
       effect="skeletal"
       id="path-effect14"
       is_visible="true"
       lpeversion="1"
       pattern="m 62.61227,26.573108 c -0.675961,-0.707186 -2.925165,-1.103518 -2.915019,0.137562 -0.568342,0.978879 -2.001163,1.625604 -2.310148,2.496432 -0.314832,-0.844728 -2.122044,0.913841 -3.005088,0.109418 -0.74782,-0.764565 1.373326,-2.213448 0.66046,-2.445216 -0.895782,0.717603 -2.188806,0.68668 -3.276393,0.782881 -1.121048,0.02045 -2.232297,-1.730852 -0.602799,-1.923678 0.357017,-1.053881 -1.885623,-0.633895 -1.090898,-1.941767 -0.587265,-0.884984 -2.230443,-1.316236 -1.424642,-2.789229 0.870763,-1.234307 -0.105489,-2.621172 0.44484,-3.841255 1.052791,-0.969451 2.905211,-1.487418 2.581844,-3.369408 -0.04812,-1.151078 0.913772,-0.304944 0.602972,0.357025 0.256766,0.887263 1.353993,2.023834 1.966551,0.636342 1.193356,-0.879149 1.933429,-2.387089 2.624803,-3.429477 0.221301,0.855255 -0.758311,0.83709 -0.157812,1.766342 0.274687,1.272609 1.37886,2.476526 2.724396,1.676266 1.220926,-0.547015 2.557421,-0.0091 3.613477,0.647431 1.532459,0.98994 -0.698216,1.776182 -0.811481,2.792682 0.46382,1.77482 2.39194,-0.500561 3.25008,0.741381 0.995371,1.056282 -0.08814,2.252786 -1.24768,2.245542 -0.260782,1.041343 0.540194,2.493082 -0.981928,2.902178 -0.665293,0.681417 0.456549,1.531933 -0.694998,1.822539 -0.24728,0.151681 -0.221366,0.508105 0.04946,0.626009 z"
       copytype="single_stretched"
       prop_scale="0.71479607"
       scale_y_rel="false"
       spacing="0"
       normal_offset="0"
       tang_offset="0"
       prop_units="false"
       vertical_pattern="false"
       hide_knot="false"
       fuse_tolerance="0" />
    <inkscape:path-effect
       effect="skeletal"
       id="path-effect13"
       is_visible="true"
       lpeversion="1"
       pattern="m 62.61227,26.573108 c -0.675961,-0.707186 -2.925165,-1.103518 -2.915019,0.137562 -0.568342,0.978879 -2.001163,1.625604 -2.310148,2.496432 -0.314832,-0.844728 -2.122044,0.913841 -3.005088,0.109418 -0.74782,-0.764565 1.373326,-2.213448 0.66046,-2.445216 -0.895782,0.717603 -2.188806,0.68668 -3.276393,0.782881 -1.121048,0.02045 -2.232297,-1.730852 -0.602799,-1.923678 0.357017,-1.053881 -1.885623,-0.633895 -1.090898,-1.941767 -0.587265,-0.884984 -2.230443,-1.316236 -1.424642,-2.789229 0.870763,-1.234307 -0.105489,-2.621172 0.44484,-3.841255 1.052791,-0.969451 2.905211,-1.487418 2.581844,-3.369408 -0.04812,-1.151078 0.913772,-0.304944 0.602972,0.357025 0.256766,0.887263 1.353993,2.023834 1.966551,0.636342 1.193356,-0.879149 1.933429,-2.387089 2.624803,-3.429477 0.221301,0.855255 -0.758311,0.83709 -0.157812,1.766342 0.274687,1.272609 1.37886,2.476526 2.724396,1.676266 1.220926,-0.547015 2.557421,-0.0091 3.613477,0.647431 1.532459,0.98994 -0.698216,1.776182 -0.811481,2.792682 0.46382,1.77482 2.39194,-0.500561 3.25008,0.741381 0.995371,1.056282 -0.08814,2.252786 -1.24768,2.245542 -0.260782,1.041343 0.540194,2.493082 -0.981928,2.902178 -0.665293,0.681417 0.456549,1.531933 -0.694998,1.822539 -0.24728,0.151681 -0.221366,0.508105 0.04946,0.626009 z"
       copytype="single_stretched"
       prop_scale="-1.598339"
       scale_y_rel="false"
       spacing="0"
       normal_offset="0"
       tang_offset="0"
       prop_units="false"
       vertical_pattern="false"
       hide_knot="false"
       fuse_tolerance="0" />
    <inkscape:path-effect
       effect="skeletal"
       id="path-effect12"
       is_visible="true"
       lpeversion="1"
       pattern="m 62.61227,26.573108 c -0.675961,-0.707186 -2.925165,-1.103518 -2.915019,0.137562 -0.568342,0.978879 -2.001163,1.625604 -2.310148,2.496432 -0.314832,-0.844728 -2.122044,0.913841 -3.005088,0.109418 -0.74782,-0.764565 1.373326,-2.213448 0.66046,-2.445216 -0.895782,0.717603 -2.188806,0.68668 -3.276393,0.782881 -1.121048,0.02045 -2.232297,-1.730852 -0.602799,-1.923678 0.357017,-1.053881 -1.885623,-0.633895 -1.090898,-1.941767 -0.587265,-0.884984 -2.230443,-1.316236 -1.424642,-2.789229 0.870763,-1.234307 -0.105489,-2.621172 0.44484,-3.841255 1.052791,-0.969451 2.905211,-1.487418 2.581844,-3.369408 -0.04812,-1.151078 0.913772,-0.304944 0.602972,0.357025 0.256766,0.887263 1.353993,2.023834 1.966551,0.636342 1.193356,-0.879149 1.933429,-2.387089 2.624803,-3.429477 0.221301,0.855255 -0.758311,0.83709 -0.157812,1.766342 0.274687,1.272609 1.37886,2.476526 2.724396,1.676266 1.220926,-0.547015 2.557421,-0.0091 3.613477,0.647431 1.532459,0.98994 -0.698216,1.776182 -0.811481,2.792682 0.46382,1.77482 2.39194,-0.500561 3.25008,0.741381 0.995371,1.056282 -0.08814,2.252786 -1.24768,2.245542 -0.260782,1.041343 0.540194,2.493082 -0.981928,2.902178 -0.665293,0.681417 0.456549,1.531933 -0.694998,1.822539 -0.24728,0.151681 -0.221366,0.508105 0.04946,0.626009 z"
       copytype="single_stretched"
       prop_scale="0.93028335"
       scale_y_rel="false"
       spacing="0"
       normal_offset="0"
       tang_offset="0"
       prop_units="false"
       vertical_pattern="false"
       hide_knot="false"
       fuse_tolerance="0" />
    <inkscape:path-effect
       effect="skeletal"
       id="path-effect11"
       is_visible="true"
       lpeversion="1"
       pattern="m 62.61227,26.573108 c -0.675961,-0.707186 -2.925165,-1.103518 -2.915019,0.137562 -0.568342,0.978879 -2.001163,1.625604 -2.310148,2.496432 -0.314832,-0.844728 -2.122044,0.913841 -3.005088,0.109418 -0.74782,-0.764565 1.373326,-2.213448 0.66046,-2.445216 -0.895782,0.717603 -2.188806,0.68668 -3.276393,0.782881 -1.121048,0.02045 -2.232297,-1.730852 -0.602799,-1.923678 0.357017,-1.053881 -1.885623,-0.633895 -1.090898,-1.941767 -0.587265,-0.884984 -2.230443,-1.316236 -1.424642,-2.789229 0.870763,-1.234307 -0.105489,-2.621172 0.44484,-3.841255 1.052791,-0.969451 2.905211,-1.487418 2.581844,-3.369408 -0.04812,-1.151078 0.913772,-0.304944 0.602972,0.357025 0.256766,0.887263 1.353993,2.023834 1.966551,0.636342 1.193356,-0.879149 1.933429,-2.387089 2.624803,-3.429477 0.221301,0.855255 -0.758311,0.83709 -0.157812,1.766342 0.274687,1.272609 1.37886,2.476526 2.724396,1.676266 1.220926,-0.547015 2.557421,-0.0091 3.613477,0.647431 1.532459,0.98994 -0.698216,1.776182 -0.811481,2.792682 0.46382,1.77482 2.39194,-0.500561 3.25008,0.741381 0.995371,1.056282 -0.08814,2.252786 -1.24768,2.245542 -0.260782,1.041343 0.540194,2.493082 -0.981928,2.902178 -0.665293,0.681417 0.456549,1.531933 -0.694998,1.822539 -0.24728,0.151681 -0.221366,0.508105 0.04946,0.626009 z"
       copytype="single_stretched"
       prop_scale="0.80706891"
       scale_y_rel="false"
       spacing="0"
       normal_offset="0"
       tang_offset="0"
       prop_units="false"
       vertical_pattern="false"
       hide_knot="false"
       fuse_tolerance="0" />
    <inkscape:path-effect
       effect="skeletal"
       id="path-effect10"
       is_visible="true"
       lpeversion="1"
       pattern="m 62.61227,26.573108 c -0.675961,-0.707186 -2.925165,-1.103518 -2.915019,0.137562 -0.568342,0.978879 -2.001163,1.625604 -2.310148,2.496432 -0.314832,-0.844728 -2.122044,0.913841 -3.005088,0.109418 -0.74782,-0.764565 1.373326,-2.213448 0.66046,-2.445216 -0.895782,0.717603 -2.188806,0.68668 -3.276393,0.782881 -1.121048,0.02045 -2.232297,-1.730852 -0.602799,-1.923678 0.357017,-1.053881 -1.885623,-0.633895 -1.090898,-1.941767 -0.587265,-0.884984 -2.230443,-1.316236 -1.424642,-2.789229 0.870763,-1.234307 -0.105489,-2.621172 0.44484,-3.841255 1.052791,-0.969451 2.905211,-1.487418 2.581844,-3.369408 -0.04812,-1.151078 0.913772,-0.304944 0.602972,0.357025 0.256766,0.887263 1.353993,2.023834 1.966551,0.636342 1.193356,-0.879149 1.933429,-2.387089 2.624803,-3.429477 0.221301,0.855255 -0.758311,0.83709 -0.157812,1.766342 0.274687,1.272609 1.37886,2.476526 2.724396,1.676266 1.220926,-0.547015 2.557421,-0.0091 3.613477,0.647431 1.532459,0.98994 -0.698216,1.776182 -0.811481,2.792682 0.46382,1.77482 2.39194,-0.500561 3.25008,0.741381 0.995371,1.056282 -0.08814,2.252786 -1.24768,2.245542 -0.260782,1.041343 0.540194,2.493082 -0.981928,2.902178 -0.665293,0.681417 0.456549,1.531933 -0.694998,1.822539 -0.24728,0.151681 -0.221366,0.508105 0.04946,0.626009 z"
       copytype="single_stretched"
       prop_scale="0.93226387"
       scale_y_rel="false"
       spacing="0"
       normal_offset="0"
       tang_offset="0"
       prop_units="false"
       vertical_pattern="false"
       hide_knot="false"
       fuse_tolerance="0" />
    <filter
       style="color-interpolation-filters:sRGB"
       inkscape:label="Noise Fill"
       id="filter59"
       x="0"
       y="0"
       width="1"
       height="1">
      <feTurbulence
         type="fractalNoise"
         baseFrequency="6.13497 9.81595"
         numOctaves="5"
         seed="145"
         result="turbulence"
         id="feTurbulence58" />
      <feComposite
         in="SourceGraphic"
         in2="turbulence"
         operator="in"
         result="composite1"
         id="feComposite58" />
      <feColorMatrix
         values="1 0 0 0 0 0 1 0 0 0 0 0 1 0 0 0 0 0 3.38298 -0.4 "
         result="color"
         id="feColorMatrix58" />
      <feFlood
         flood-opacity="0"
         flood-color="rgb(219,175,0)"
         result="flood"
         id="feFlood58" />
      <feMerge
         result="merge"
         id="feMerge59">
        <feMergeNode
           in="flood"
           id="feMergeNode58" />
        <feMergeNode
           in="color"
           id="feMergeNode59" />
      </feMerge>
      <feComposite
         in2="SourceGraphic"
         operator="in"
         result="fbSourceGraphic"
         id="feComposite59" />
      <feColorMatrix
         result="fbSourceGraphicAlpha"
         in="fbSourceGraphic"
         values="0 0 0 -1 0 0 0 0 -1 0 0 0 0 -1 0 0 0 0 1 0"
         id="feColorMatrix59" />
      <feTurbulence
         id="feTurbulence59"
         type="fractalNoise"
         baseFrequency="6.13497 9.81595"
         numOctaves="5"
         seed="145"
         result="turbulence" />
      <feComposite
         id="feComposite60"
         in="fbSourceGraphic"
         in2="turbulence"
         operator="in"
         result="composite1" />
      <feColorMatrix
         id="feColorMatrix60"
         values="1 0 0 0 0 0 1 0 0 0 0 0 1 0 0 0 0 0 3.38298 -0.4 "
         result="color" />
      <feFlood
         id="feFlood60"
         flood-opacity="0"
         flood-color="rgb(219,175,0)"
         result="flood" />
      <feMerge
         id="feMerge60"
         result="merge">
        <feMergeNode
           id="feMergeNode60"
           in="flood" />
        <feMergeNode
           id="feMergeNode61"
           in="color" />
      </feMerge>
      <feComposite
         id="feComposite61"
         in2="fbSourceGraphic"
         operator="in"
         result="composite2" />
    </filter>
  </defs>
  <g
     inkscape:label="Capa 1"
     inkscape:groupmode="layer"
     id="layer1"
     transform="translate(-29.999999,-73.50001)">
    <g
       id="g61">
      <path
         style="fill:#ffdd55;stroke-width:1.17951;stroke-linecap:round;stroke-linejoin:round;filter:url(#filter59)"
         d="m 99.734112,90.826744 c -1.713431,-0.157283 -7.702498,-0.327713 -11.432606,-0.435907 -4.285091,-0.124292 -8.018296,-0.218134 -8.027772,0.356214 -2.005032,0.324976 -5.231046,0.380233 -8.482656,0.329949 -3.134489,-0.04847 -6.178477,-0.197454 -7.244082,0.0078 -0.04722,-0.02777 -0.100426,-0.05523 -0.159382,-0.08241 -1.039081,-0.514735 -3.576431,-0.684754 -7.255807,-1.125451 -3.750473,-0.449213 -7.781655,-1.139727 -11.421951,-2.626607 -0.922481,-0.388952 -1.358027,-0.620585 -1.407056,-0.68879 -0.258978,-0.152802 -0.49661,-0.301554 -0.712759,-0.445155 -0.239282,-0.164267 -0.413706,-0.299938 -0.534935,-0.410141 -0.435558,-0.392509 -0.264919,-0.510028 0.234122,-0.470459 0.354189,0.02649 0.866737,0.135839 1.512923,0.299884 0.108851,0.005 0.543451,0.156189 1.387583,0.434987 3.229362,0.566188 5.656033,0.754828 3.348485,-0.02084 -0.955543,-0.175935 -1.98397,-0.415473 -3.067023,-0.729721 -0.732081,-0.272897 -1.153107,-0.456053 -1.268184,-0.507954 0,0 -1e-6,0 -1e-6,0 -0.47371,-0.196057 -0.923347,-0.389335 -1.36455,-0.580014 -1.141295,-0.493578 -2.291982,-1.01048 -3.436003,-1.511765 0,0 0,0 0,0 -1.083337,-0.470463 -2.051104,-0.904607 -2.887432,-1.193206 0,0 0,0 0,0 -0.354212,-0.09868 -0.365954,-0.128141 -0.04762,-0.02738 0,0 0,0 0,0 -0.01342,0.08395 0.561687,0.09187 1.730318,0.0538 1.175315,0.569562 2.943435,-0.903511 5.363152,-4.403423 -0.267141,0.518737 -0.08919,1.586724 0.166925,2.729202 0,10e-7 0,10e-7 0,10e-7 0.0112,0.04295 0.02288,0.08593 0.035,0.128939 0.420027,1.591326 1.297434,3.490299 1.83356,4.91722 0,0 10e-7,10e-7 10e-7,10e-7 0.556537,1.45254 0.936407,3.065351 -0.959974,0.617118 -0.410661,-0.537745 -0.980399,-1.361752 -1.498928,-2.319657 -0.730346,-0.509466 -0.189948,0.985857 0.764158,2.792003 1.231756,2.30468 3.459772,5.285195 1.089792,3.418049 0.879043,1.934662 2.619573,4.214414 4.185101,6.524027 1.374089,2.027185 2.021854,3.347727 -0.272648,1.917102 -2.326751,-1.64028 -2.65994,-1.135207 -2.820421,-0.392818 -0.155069,0.717357 -0.133523,1.669467 -1.770439,0.713403 -2.425441,-2.056844 -5.007972,-4.68809 -7.412413,-7.679156 -1.706222,-2.103118 -2.61317,-3.599412 -3.642429,-5.155111 -0.852334,-1.28828 -1.439432,-1.985077 -1.677542,-1.036643 -0.228316,0.185314 -0.529805,-0.212938 -0.798248,-0.91629 0,0 0,0 0,0 -0.44247,-1.130829 -0.625572,-2.657659 -0.510413,-3.937206 0.121445,-1.349382 0.40897,-1.596308 0.628942,-0.644139 0.2863,-0.927047 0.638811,-2.946551 1.624334,-5.354603 1.845137,-2.708407 3.298559,-3.862109 4.292318,-3.439326 0,0 1.1e-5,4e-6 1.1e-5,4e-6 1.058372,-0.03723 1.688397,0.01439 1.871026,0.128444 0,0 1e-6,10e-7 1e-6,10e-7 0.877527,0.244812 1.500485,0.495615 1.880446,0.699925 1.245499,0.585727 2.590551,1.25663 3.664065,1.714081 1.271439,0.538886 2.497616,0.951627 3.591235,1.111646 0.07415,0.02754 0.147943,0.05485 0.221408,0.08193 0.465839,0.172101 0.897266,0.326013 1.308275,0.461571 0,0 2e-6,1e-6 2e-6,1e-6 0.362507,0.12705 0.445485,0.14888 0.265445,0.02819 4.429228,0.976825 10.104884,0.100925 13.438088,-0.05965 0.65722,0.512678 -0.612316,0.502531 -1.546177,0.561222 -0.925119,0.05814 -1.561342,0.17769 0.269657,0.905196 0.617017,0.572547 1.984698,1.217674 4.058831,1.95017 3.007508,1.094889 7.467983,2.034984 12.65084,2.020197 6.875031,0.131441 15.522706,0.620915 22.397734,0.752356 4.52595,0.108139 4.02516,0.507359 1.41712,1.187301 -2.31003,0.602249 -6.046481,1.243984 -6.360767,1.692983 1.518838,0.783033 5.293197,0.479044 9.388037,-0.120469 3.95487,-0.57902 8.52827,-1.502861 11.18387,-1.42588 5.04506,-0.12986 1.26417,2.179212 -7.58503,3.283853 -0.77472,0.586853 0.16365,1.054804 0.0801,1.57679 -0.0836,0.521986 -1.19194,1.176342 -6.1645,1.776301 -2.14579,0.493919 -1.39764,0.7747 -1.00917,1.069003 0.37546,0.284448 0.35383,0.601279 -3.463804,0.933484 -1.53449,0.211923 -1.553896,0.552185 0.359786,0.565865 7e-6,-10e-7 1.4e-5,-10e-7 2e-5,-10e-7 z"
         id="path10"
         inkscape:path-effect="#path-effect10"
         inkscape:original-d="M 50.485846,99.150039 C 45.322421,93.676252 35.420964,83.449386 38.254738,74.94806 c 0.279078,-0.837229 9.476367,4.074109 10.409455,4.424018 5.583327,2.093748 11.324481,2.579471 17.175596,3.64331 17.320471,3.149174 37.387541,2.879897 54.389391,-0.520475"
         transform="matrix(0.14177832,0,0,0.14177832,29.566628,76.02339)" />
      <path
         style="fill:#ffdd55;stroke-width:1.17951;stroke-linecap:round;stroke-linejoin:round;filter:url(#filter59)"
         d="m 152.8141,82.233889 c 1.14886,-1.768687 2.3949,-5.241772 2.09143,-9.17736 -0.28487,-3.694398 -1.92948,-6.142512 -2.38339,-5.861602 -0.30362,-0.303705 -0.65427,-0.660475 -1.06955,-1.032825 -1.18437,-1.253621 -2.65072,-2.317571 -4.54633,-3.033931 -1.78136,-0.673184 -3.44029,-0.824922 -4.13904,-0.672663 -0.67644,-0.522143 -3.25812,-0.854027 -6.1039,-0.264128 -2.62207,0.403858 -5.87719,2.502519 -8.58101,3.642603 -2.27831,0.924474 -0.58798,-0.549827 1.23244,-2.00507 1.6325,-1.305014 3.56511,-2.606676 1.51482,-1.716465 -1.37507,0.860458 -4.50321,2.889244 -6.76452,4.194435 -2.98275,1.999396 -5.31906,2.395904 -5.05945,2.873965 0,0 0,0 0,0 0.55559,-2.240925 0.42439,0.353573 0.37791,0.547062 0.0124,0.404737 0.0698,0.900161 0.13976,1.468712 0.0936,0.819483 0.19294,1.790333 0.22674,2.927471 0.078,2.958726 0.0241,5.83436 -0.1098,6.344278 -0.0919,0.350071 -0.27553,0.32552 -0.5317,-0.378216 -0.25731,-0.706882 -0.55627,-2.025911 -0.76412,-4.392676 -0.37984,-0.845663 -0.47271,0.821174 -0.33213,2.957809 0.13565,2.061708 0.64168,4.293462 0.58166,4.851169 -0.0182,0.141624 -0.0803,0.178373 -0.20376,0.06662 -0.12047,-0.109284 -0.31033,-0.371383 -0.54785,-0.821606 0.0234,0.286775 0.0653,0.610232 0.12775,0.95896 0.39782,2.3961 1.50525,4.638005 2.79933,6.7388 0.86183,1.399094 1.97261,3.093192 -0.4756,1.323013 -2.28833,-1.823969 -2.5407,-1.78352 -2.72215,-0.910383 -0.12729,0.612477 -0.0871,1.775325 -1.70897,0.245568 -1.23283,-1.511812 -2.39977,-3.400591 -3.30608,-5.627031 -1.61324,-4.06006 -2.2129,-8.369692 -2.73944,-10.833532 -0.4149,-1.506926 -0.95569,-2.336673 -1.35204,-1.597649 -0.39301,0.189987 -0.68575,-1.075607 -0.67163,-2.905128 -0.16528,-0.875527 5.7e-4,-1.90005 0.24767,-2.568958 0.2834,-0.767177 0.36837,-0.538937 0.3958,0.278377 0.24672,-0.635342 0.91556,-2.735993 2.59111,-5.054691 2.91423,-2.625125 6.566,-3.95677 8.19282,-4.969228 0.81011,-0.574712 1.57321,-1.193533 2.1987,-1.806613 4.78072,-3.322728 8.51444,-5.569744 13.19862,-7.124863 2.34495,-0.729766 4.67657,-1.139905 6.91421,-1.244036 0.97681,0.427693 -0.76694,0.433565 -2.0481,0.591054 -1.67717,0.206169 -1.71438,0.348193 0.54342,0.751868 1.17852,0.553524 4.09954,1.178796 7.75349,2.762592 3.63284,1.574648 8.05213,4.161033 11.78579,8.684011 0.0528,0.06954 0.10526,0.139375 0.15751,0.209491 5.81612,8.030772 5.32684,18.308112 1.27228,25.730373 -0.6818,1.232396 -1.48185,2.269013 -2.32899,3.131078 -1.10199,1.116811 -2.1387,1.772671 -2.75943,2.107803 -2.09923,1.144837 -1.20612,0.218305 -0.39835,-0.554319 1.33198,-1.25013 2.92327,-2.997704 3.8378,-5.465654 0.53854,-1.587405 0.74962,-2.916509 0.6124,-3.196679 -0.48019,0.564653 -0.97947,1.525703 -1.6291,2.715087 -0.85866,1.564227 -2.09195,3.108896 -3.89251,4.456326 -1.61897,1.219566 -3.38485,2.166758 -5.20523,2.993576 -2.4638,1.14203 -6.67572,2.636102 -7.94642,3.049981 -1.5319,0.578514 -2.26165,0.91023 -2.49851,0.826175 -0.22717,-0.08061 0.0377,-0.57016 0.80329,-1.25269 2.03639,-1.815389 4.55439,-2.723962 8.83002,-4.531648 -8.1e-4,3.43e-4 0.0658,-0.02812 0.065,-0.02777 0.63398,-0.710741 -0.31167,-0.828076 -0.41539,-1.2482 -0.053,-0.214725 0.1065,-0.489611 0.73395,-0.965056 0.62303,-0.472087 1.76813,-1.081374 3.19043,-2.243722 0.22231,-0.185956 0.45633,-0.389705 0.68771,-0.606219 1.12511,-1.323022 0.40917,-1.173164 0.0422,-1.17629 -0.18835,-0.0016 -0.31803,-0.03927 -0.23724,-0.274191 0.0805,-0.234069 0.46592,-0.663436 0.69931,-1.436627 0.0631,-0.153528 0.12924,-0.318099 0.19698,-0.492787 0.5894,-1.791684 -0.11847,-0.814002 -0.57059,0.04224 0,5e-6 0,1e-5 0,1.5e-5 z"
         id="path11"
         inkscape:path-effect="#path-effect11"
         inkscape:original-d="m 121.00989,93.164603 c -5.55843,-5.393899 -6.64373,-11.466586 -7.02638,-18.737016 -0.11736,-2.22989 -1.11958,-6.797971 0.52047,-8.848034 1.4033,-1.754127 4.7792,-3.028384 6.76615,-4.16378 4.28007,-2.445755 9.41245,-5.491742 14.31299,-6.245672 17.95669,-2.762567 28.89615,14.002903 21.59962,29.406704 -3.09506,6.534015 -13.36521,7.421541 -18.73702,11.450397"
         transform="matrix(0.19776682,0,0,0.19776682,22.022913,71.60009)" />
      <path
         style="fill:#ffdd55;stroke-width:1.17951;stroke-linecap:round;stroke-linejoin:round;filter:url(#filter59)"
         d="m 167.52096,97.378249 c 0.21626,0.01032 0.45867,0.01654 0.72287,0.01861 2.39139,0.04021 5.88133,-0.392832 9.30537,-1.392354 3.22242,-0.940665 5.74237,-2.223863 5.51172,-2.719716 0.85147,-0.673209 2.46677,-1.733117 3.9086,-2.743087 -0.45798,0.197362 -0.68368,-0.06829 -0.60476,-0.351153 0.0529,-0.615809 -0.18716,-1.499717 -0.43761,-1.817564 0.0289,-0.02451 0.0559,-0.05391 0.081,-0.08823 0.20633,-0.33245 0.22713,-1.224184 -0.0884,-1.679536 0,0 0,0 0,0 -0.29969,-0.186016 -0.18822,-0.116256 0.39071,0.685723 0,0 1e-5,2e-6 1e-5,2e-6 4.6534,1.654123 6.48129,2.316983 5.58452,1.472802 0,-3e-6 0,-2e-6 0,-2e-6 0.0481,-0.0053 -0.2247,0.162187 -0.82869,0.40239 -0.57614,0.256028 -1.23893,0.559365 -2.0698,0.891426 -0.25464,0.205686 -1.47902,0.605509 -3.47168,1.001285 -0.73315,0.07249 -1.4025,0.102761 -1.99776,0.09656 -2.82604,-0.0677 -0.37374,-0.76612 1.78659,-1.469133 1.86361,-0.51995 2.77034,-0.995113 3.00483,-1.286569 0,0 0,0 0,0 1.51535,-0.979732 2.22574,-1.582868 0.56034,-0.972998 -0.24057,0.137104 -0.50173,0.280585 -0.78331,0.427786 -0.27465,0.240422 -1.18024,0.647489 -2.90158,1.053552 -5.02078,1.064901 -10.2402,0.653881 -13.47209,1.434403 -1.49506,0.260557 -2.93708,0.431681 -4.31494,0.542381 -4.09449,0.292014 -7.73436,-0.408826 -9.09913,-0.965395 -1.79098,-0.73038 -0.0336,-0.69412 4.88479,-0.697907 1.14764,-0.446295 -1.90397,-0.643607 -4.57633,-1.067577 -2.75369,-0.436872 -4.70458,-0.947111 -2.28761,-1.243413 -1.77357,-0.628518 -5.11345,-1.432492 -7.35142,-2.109117 -2.15856,-0.652621 -3.50579,-1.24522 -0.94894,-1.641117 2.68659,-0.253571 2.62728,-0.858968 2.30478,-1.518984 -0.32053,-0.655964 -0.89925,-1.352979 0.86683,-1.692395 3.28319,-0.0149 7.65094,0.296867 10.7502,0.0456 3.14609,-0.255064 4.91178,-1.022408 4.08408,-1.823888 -0.14606,-0.514101 0.9623,-0.655276 1.87266,-0.65808 0.87867,-0.0027 1.76613,0.14292 1.06685,0.613527 0.10968,0.04554 0.24661,0.08634 0.40693,0.119943 0.93273,0.09739 4.28008,0.260386 6.09704,0.294974 2.34539,0.04465 4.52392,-0.05408 5.9946,-0.768243 0.71589,-0.145842 1.35417,-0.317441 1.92825,-0.522158 -0.51729,0.08485 -0.43376,-0.120747 0.1937,-0.402508 0.62533,-0.402588 1.21838,-0.798851 1.98622,-1.267177 0.68567,-0.453536 1.60701,-0.943513 2.81473,-1.411387 0.053,-1.009789 2.50391,-0.824835 7.06118,0.926909 1e-5,10e-7 1e-5,10e-7 1e-5,2e-6 2.97614,2.025452 4.8481,4.43052 5.73867,6.625444 0.47184,1.008474 0.85381,2.02041 1.14811,3.022679 -0.14046,0.75144 -0.37087,0.252158 -0.63392,-0.462136 -0.31107,-0.844673 -0.60764,-1.726058 -0.98002,-2.411621 -0.3078,-0.642954 -0.44057,-0.610419 -0.4235,0.135387 0.0196,0.329098 0.0737,0.815436 0.12757,1.48496 -0.20932,1.092689 -0.23488,3.240666 -0.79002,5.819751 -0.34732,1.81026 -0.98458,4.085145 -2.26298,6.468785 -0.90545,1.827504 -2.53745,3.771969 -5.15469,5.274024 -1.08127,0.57747 -2.24389,1.20191 -3.40558,1.82815 -6.10096,3.12739 -12.9057,4.67212 -19.30861,4.98616 -1.19655,0.054 -2.35702,0.0839 -3.44916,0.10118 -3.80012,0.0461 -3.82373,-0.30536 -2.53715,-0.78166 1.30419,-0.48282 3.99939,-1.11119 5.70092,-1.6772 0.82296,-0.2687 1.40824,-0.53008 1.51573,-0.72759 -0.41075,-0.1593 -0.96608,-0.23453 -1.63489,-0.25678 -2.09104,-0.0753 -5.62389,0.47503 -8.93895,1.02264 -3.23865,0.53498 -6.8775,1.20081 -8.98094,1.1695 -2.81858,0.122 -3.18115,-0.28249 -1.3826,-1.14391 1.73652,-0.83171 4.85176,-1.6673 8.4711,-2.12941 0.72669,-0.58176 -0.16427,-1.05165 -0.0903,-1.57153 0.0736,-0.51759 1.13272,-1.10723 5.73396,-1.80163 1.96934,-0.533075 1.24122,-0.814459 0.88801,-1.08767 -0.35455,-0.274247 -0.30059,-0.529812 3.07341,-1.061146 0.158,-0.03411 0.29608,-0.06836 0.41463,-0.10216 0,0 0,0 0,0 0.74232,-0.219691 0.65101,-0.410652 -0.0543,-0.449046 0,0 0,0 0,0 -0.19409,-0.0083 -0.43423,-0.0068 -0.7198,0.0066 0,10e-7 -1e-5,10e-7 -2e-5,2e-6 z"
         id="path12"
         inkscape:path-effect="#path-effect12"
         inkscape:original-d="m 146.77328,82.494913 c 7.95579,0.847841 15.72558,2.84104 23.68151,1.301183 4.67101,-0.904068 9.16876,-0.329596 13.79253,-1.040947 1.40443,-0.216064 6.02114,-2.835815 7.02638,-2.08189 4.27589,3.206919 3.61403,13.416806 -1.30119,15.874415 -17.41648,8.708246 -24.93954,5.259006 -41.37757,9.368506"
         transform="matrix(0.14177832,0,0,0.14177832,29.566628,76.02339)" />
      <path
         style="fill:#ffdd55;stroke-width:1.17951;stroke-linecap:round;stroke-linejoin:round;filter:url(#filter59)"
         d="m 47.23533,130.97552 c 2.206842,2.75012 5.623518,6.96564 11.35751,10.66366 4.235511,2.58438 8.058966,4.28934 11.404931,5.74526 3.146457,1.3691 5.218967,2.28513 5.015797,2.86916 0.917959,0.54199 2.087018,1.1122 3.424618,1.67225 3.438236,1.47904 7.369423,2.7053 11.357324,3.78542 3.782637,1.02453 7.153673,1.78995 8.435586,2.43583 0.739617,-0.25058 2.200684,-0.26149 4.132894,-0.19025 6.98238,0.28705 16.07094,1.095 24.72381,-0.92084 1.07198,-0.23067 2.07722,-0.5078 2.98942,-0.82698 4.04316,-1.48705 -0.0455,-1.43971 -3.43445,-1.59836 -4.13742,-0.12293 -7.71467,-0.36758 -4.1886,-1.05248 1.2483,-0.0244 2.56993,-0.10295 3.95166,-0.23881 6.18296,-0.51792 13.71264,-2.39192 21.25753,-6.6224 3.92193,-2.4224 7.09947,-5.29671 9.63627,-8.29034 2.474,-2.971 4.09437,-6.1075 5.05989,-8.91519 0,0 0,0 0,0 1.50464,-3.625 1.765,-6.70429 1.42165,-7.28715 -0.35076,-0.59543 -1.04467,1.45471 -3.72266,6.16232 -0.33843,0.67152 -0.73006,1.41578 -1.17851,2.20809 -1.07741,0.8741 -0.51119,-0.60566 0.21772,-2.67777 0,0 0,0 0,0 1.17114,-2.90426 2.21168,-5.98562 2.54033,-9.11871 0.3489,-3.32613 -0.19079,-3.19547 -1.27448,-0.7977 -0.0467,-2.70542 -0.009,-6.037 -1.05903,-9.859 -0.18207,-0.4723 -0.38829,-1.41215 -0.79385,-2.55002 -0.10269,-1.45548 -1.78042,-2.86492 -4.14681,-3.69629 -4.93816,0.51974 -4.14248,1.67174 -4.06456,2.10495 0.0345,0.19156 0.10377,0.43288 0.34495,0.52565 0.2681,0.10313 0.84274,-0.0459 2.00354,-0.10188 0.44882,-0.0439 0.87361,-0.0162 1.26178,0.0964 1.29382,0.63209 0.99706,1.83109 0.90569,2.10043 -0.23703,0.6754 -0.69932,0.84332 -1.10279,0.84347 -0.43017,1.7e-4 -0.89151,-0.15397 -1.34278,-0.16234 -0.42849,0.0631 -0.66675,0.17794 -0.98894,0.31898 -0.25285,0.11067 -0.65456,0.24767 -0.77042,0.17104 0,0 0,0 0,0 -0.1824,0.0897 -0.43774,0.23594 -0.59383,0.74798 -0.0172,0.27422 -0.0181,0.65346 0.0207,1.14622 -0.009,3.91422 -1.78781,8.02573 -4.32938,11.6853 0,0 0,0 0,0 -2.67076,3.36725 -4.78258,4.26447 -5.3624,2.66032 -0.64823,-0.67817 -1.51248,0.32176 -2.04391,1.23892 -0.49235,0.84973 -0.83065,1.91431 0.15565,1.75353 -0.037,0.59012 -0.39355,1.49916 -1.12841,2.31192 -2.30836,2.52289 -6.98095,4.63019 -11.03294,3.86561 -1.21331,0.10594 -2.40663,0.16251 -3.55051,0.1884 0,0 0,0 0,0 -7.73875,0.0444 -13.92027,-2.10414 -18.49403,-3.53813 -0.92791,0.66774 0.62665,1.03329 1.8119,1.38767 1.1266,0.33683 2.03508,0.72046 -0.53891,1.45361 -0.49578,0.42826 -1.31602,0.8474 -2.42159,1.20861 -3.926597,1.26822 -11.71762,1.84615 -19.931304,-1.09784 -0.251454,-0.0932 -0.502506,-0.18882 -0.752903,-0.2871 -5.132597,-1.85369 -9.894981,-3.47948 -13.815992,-5.87224 0,0 -10e-7,0 -10e-7,0 -2.590494,-1.37765 -4.917795,-3.79023 -6.753205,-6.37473 -0.283325,-0.40089 -0.554109,-0.81158 -0.813461,-1.22866 -1.961242,-3.11814 -2.519237,-4.34328 -2.765478,-3.10805 -0.201588,1.01125 0.158925,3.44337 0.805434,5.74836 0.607197,2.22296 1.540678,4.42484 1.325883,4.95052 -1.187829,-0.32282 -2.543033,-1.66935 -3.693199,-3.74562 -1.911731,-3.44614 -2.777898,-7.73496 -3.659487,-12.61756 -0.421107,-2.67874 -1.574231,-9.09323 -1.786994,-10.06042 -0.297261,-2.016002 -0.356341,-3.077171 -0.690447,-3.390351 -0.321781,-0.301626 -0.908514,0.142725 -1.454367,1.347935 -1.290652,2.849686 -1.354157,7.242196 -0.106559,12.977816 0.05549,0.26775 0.113345,0.53603 0.173698,0.80456 -0.542635,1.38974 -1.795648,0.35532 -2.596726,0.76282 -0.39276,0.19979 -0.69868,0.77891 -0.67878,2.24114 0.01781,1.30839 0.344345,4.00461 1.614524,7.67386 0.702557,3.12952 0.04554,2.77192 -0.646395,2.4164 -0.691934,-0.35553 -1.458537,-0.69875 -0.01195,2.85391 0.33486,0.81136 0.832981,1.87093 1.542244,3.09252 0.587107,1.13137 1.725389,4.25544 -1.171888,0.006 -6e-6,-1e-5 -1.3e-5,-2e-5 -1.9e-5,-3e-5 z"
         id="path13"
         inkscape:path-effect="#path-effect13"
         inkscape:original-d="m 151.06393,106.13338 c 0.91191,-0.33263 1.77927,-1.16343 2.73574,-0.99791 1.30191,0.22531 1.3442,2.34002 1.56142,3.64331 1.64364,9.86186 -5.00216,23.03355 -13.53229,28.10553 -18.32659,10.89688 -59.687564,9.82668 -78.331137,-2.60237 -8.129709,-5.4198 -11.293867,-14.29117 -13.272053,-23.42127 -0.933667,-4.30922 -1.812139,-10.38304 -0.702537,-14.396324"
         transform="matrix(0.14177832,0,0,0.14177832,29.566628,76.02339)" />
      <path
         style="fill:#ffdd55;stroke-width:1.17951;stroke-linecap:round;stroke-linejoin:round;filter:url(#filter59)"
         d="m 173.18132,117.50475 c 1.541,-4.13126 3.38416,-10.4157 4.24391,-18.397071 0.86833,-8.061019 0.58558,-16.466314 -0.92391,-24.752984 -0.36504,-2.238043 -1.54394,-4.513088 -2.82135,-6.646834 -1.71568,-2.79079 -3.8159,-5.269926 -5.67672,-7.267325 0,0 0,-3e-6 0,-3e-6 -4.2645,-4.54631 -7.50316,-6.90963 -7.60735,-6.682581 -1.65505,-1.25954 -3.71831,-2.751001 -6.1258,-4.237991 -6.14231,-3.847177 -13.52242,-6.271388 -22.36978,-7.96324 -10.71915,-1.991516 -20.73119,-1.965164 -24.51899,-1.728973 -0.0286,0.002 -0.0569,0.0039 -0.0849,0.0059 -1.55564,-0.13085 -5.64666,-0.258051 -10.1151,-0.08605 -4.595424,0.176885 -10.447551,0.689626 -15.985292,2.418231 -7.590533,2.195211 -14.665594,6.833235 -21.875836,12.205408 -1e-6,0 -2e-6,10e-7 -3e-6,2e-6 -3.963375,3.205578 -6.846838,5.409374 -7.998307,8.113189 -0.98781,1.830727 -1.761615,3.939766 -2.431928,5.879903 -0.757968,2.170557 -1.093162,3.183679 -1.337039,3.661683 -0.198412,0.388892 -0.160887,-0.02421 0.03045,-0.964913 0.342412,-1.683477 1.330975,-5.994454 2.750389,-9.070738 1.092099,-2.990549 4.325678,-5.785068 6.041658,-7.340011 0.84272,-0.763634 1.316952,-1.204186 1.083643,-1.083904 -0.221938,0.114419 -1.159325,0.76629 -2.79732,2.133458 -2.030473,1.818498 -3.919895,3.789271 -4.852219,6.028338 -2.165572,4.374448 -3.193415,10.244822 -5.6022,16.785779 -10e-7,2e-6 -2e-6,3e-6 -2e-6,5e-6 -2.137288,5.881328 -3.871067,12.058383 -4.482085,18.305781 -0.59306,6.162238 -0.148092,12.329388 1.807838,17.830528 1.689133,4.90183 3.835614,9.58974 6.181682,14.04739 3.301336,6.30357 7.106001,12.51231 10.315765,17.72486 0,0 3e-6,1e-5 3e-6,1e-5 2.043309,3.56647 7.370167,7.56026 8.609891,8.60533 1.284165,1.05018 1.99845,1.74219 -0.241623,0.34454 -0.698962,-0.45229 -6.738014,-4.20445 -9.33465,-8.32457 -0.889991,-1.36095 -1.883427,-2.89773 -2.90695,-4.5192 -1.494587,-1.99739 -0.240874,0.32442 2.509955,4.77608 1.896565,3.20393 5.058272,5.75746 9.201948,8.82302 0,1e-5 10e-7,1e-5 2e-6,1e-5 4.143868,2.9927 7.725447,4.96558 9.667327,6.09952 0.319514,0.18658 2.825354,1.85507 -2.982551,-1.0354 2.193705,1.34962 4.997907,2.88812 8.365559,4.43817 5.405599,2.47584 10.99566,4.45623 16.754916,5.37618 2.82594,0.44978 5.21408,0.57688 7.39726,0.42164 3.41429,-0.25262 5.55237,-1.2132 6.02707,-1.27941 0.4747,-0.0662 -0.52442,1.25086 -4.84152,2.16297 -0.36723,0.0732 -0.72544,0.13503 -1.06998,0.18769 -4.2091,0.64022 -6.604793,0.32289 -7.761275,0.35942 -1.462187,0.0463 -1.037837,0.3519 -0.100239,0.74734 1.07856,0.45497 4.142354,1.34248 -0.157692,1.17568 -0.683104,-0.0259 -1.584558,-0.0925 -2.686358,-0.23176 -4.966563,-0.80169 -10.063128,-2.32969 -15.444801,-4.53042 -5.815649,-2.36299 -11.44326,-5.29231 -16.711839,-8.83781 -4.374411,-2.87324 -8.290355,-5.98497 -11.261625,-10.25086 0,0 -2e-6,0 -2e-6,0 -7.772982,-11.33865 -12.365755,-19.38405 -10.991545,-15.49886 -0.0578,0.75894 -3.015456,-4.57731 -5.04559,-9.44037 -3.23629,-7.75233 -1.969307,-6.28365 -1.521549,-5.28839 -0.209293,-0.74125 -0.508839,-1.74537 -0.861951,-2.97536 -1.509692,-5.32604 -2.698563,-12.58516 -1.585731,-21.813725 0.874493,-7.305235 2.812158,-14.114145 5.006402,-20.454001 0.759707,-2.234893 1.362246,-4.691799 1.856108,-6.799483 1.052869,-3.77024 2.098157,-7.343456 3.776724,-10.988978 2.843204,-5.622194 7.320647,-9.529482 10.894825,-12.272569 8.461767,-6.865367 16.467967,-11.84462 25.262615,-14.842697 5.376826,-1.742148 10.722378,-2.704796 15.714431,-3.251141 3.077433,0.0938 -2.155424,0.543196 -6.018136,1.226731 -3.890735,0.688494 -6.406409,1.040567 1.81216,0.426854 5.246355,0.02737 7.26883,-0.195006 18.181028,0.348445 7.11627,0.314695 16.41465,1.046408 26.27115,3.151301 7.96198,1.67199 17.06169,4.447548 25.33659,9.740215 0.35982,0.232596 0.71827,0.46864 1.07535,0.708104 5.04282,3.409978 9.66307,7.484182 13.82387,12.032063 2.37116,2.574732 4.62196,5.394626 6.552,8.529361 0,0 0,4e-6 0,4e-6 1.70097,2.699325 3.16088,5.841484 3.85843,9.420274 3.8943,21.325256 0.15349,41.865732 -8.28075,57.985932 -0.23952,0.45706 -0.47645,0.89823 -0.70978,1.32338 -5.17218,9.4064 -7.8498,11.40672 -7.31777,10.41825 0.53203,-0.98848 3.62571,-5.36487 6.35512,-10.92606 2.26057,-4.613 3.9857,-9.21873 5.23245,-13.64474 1.17451,-4.16956 1.70612,-7.45981 1.68886,-8.10562 -1.27767,3.89866 -3.39458,12.03802 -8.14617,21.10424 -4.11195,7.8409 -9.88472,15.64688 -17.62818,21.99098 -8.59253,7.031 -18.08488,10.91971 -26.31309,12.59632 -1.45695,0.27868 -2.8917,0.86981 -4.16418,1.43206 -0.89557,0.40747 -1.7283,0.81146 -2.50343,1.16649 -2.6141,1.23322 -4.43578,1.62787 -5.76259,1.72523 -1.30395,0.0957 -1.69138,-0.094 -1.60277,-0.15214 0.28273,-0.18562 3.09929,-0.4585 6.88153,-2.53013 1.66732,-0.91597 4.23954,-2.45725 6.81914,-3.10364 7.62308,-1.89759 16.31425,-5.46107 24.42954,-11.71099 0.56075,-0.54123 0.82338,-0.87589 0.89938,-1.05459 0.0721,-0.16938 -0.0126,-0.21484 -0.16589,-0.20558 0,0 0,0 0,0 -0.55774,0.0338 -1.86204,0.69865 -0.56213,-0.69659 0.70214,-0.75197 2.18502,-2.07781 4.66305,-4.71683 2.29014,-2.43891 6.14048,-6.81622 9.8616,-13.14619 0.81665,-1.4609 1.38805,-2.63359 1.73384,-3.39541 0,0 0,0 0,0 1.60512,-3.52893 -0.12496,-0.83203 -0.58503,-0.30861 0,0 0,0 0,0 -0.17768,0.20231 -0.26409,0.23967 -0.15576,-0.0822 0.26714,-0.79053 2.11517,-3.60544 4.85651,-12.35555 1.75204,-5.80533 1.39312,-5.21624 -0.80273,1.00812 -1e-5,2e-5 -2e-5,5e-5 -3e-5,7e-5 z"
         id="path14"
         inkscape:path-effect="#path-effect14"
         inkscape:original-d="M 111.64138,170.97526 C 96.838099,179.07401 61.579823,161.03226 53.868917,149.11541 47.271124,138.91882 40.71162,127.93405 36.693321,116.32564 32.163332,103.239 34.903383,89.176486 39.55592,76.769716 c 2.068314,-5.515504 3.360073,-11.924871 5.985435,-17.175599 2.277751,-4.555498 5.94201,-7.449225 9.888982,-10.409452 18.032439,-13.52433 28.725027,-15.972983 52.047263,-15.614179 15.82413,0.243449 35.8056,2.878 49.4449,11.970869 8.10695,5.404634 21.51989,17.783749 23.42127,28.105523 7.3031,39.645372 -11.5783,81.802422 -51.26655,90.822482 -5.07216,1.15276 -8.56031,4.94449 -13.79253,4.94449"
         transform="matrix(0.18406273,0,0,0.19390387,26.063887,69.9053)" />
      <rect
         style="fill:none;stroke:none;stroke-width:0.249562;stroke-linecap:round;stroke-linejoin:round;stroke-opacity:1"
         id="rect15"
         width="32"
         height="32"
         x="30"
         y="73.5" />
    </g>
  </g>
</svg>
